<?xml version="1.0" encoding="UTF-8"?>
<svg width="30px" height="25px" viewBox="0 0 30 25" version="1.1" xmlns="http://www.w3.org/2000/svg" xmlns:xlink="http://www.w3.org/1999/xlink">
    <!-- Generator: Sketch 58 (84663) - https://sketch.com -->
    <title>Cloud</title>
    <desc>Created with Sketch.</desc>
    <g id="Page-1" stroke="none" stroke-width="1" fill="none" fill-rule="evenodd">
        <g id="Weather-Glyph" transform="translate(-245.000000, -186.000000)">
            <g id="Cloud" transform="translate(244.000000, 183.000000)">
                <rect id="Rectangle" x="0" y="0" width="32" height="32"></rect>
                <g id="Group-2" transform="translate(1.000000, 3.000000)" fill="#404852" fill-rule="nonzero">
                    <path d="M10,22.5 C10.5522847,22.5 11,22.9477153 11,23.5 C11,24.0522847 10.5522847,24.5 10,24.5 L3.05706152,24.5 C2.50477678,24.5 2.05706152,24.0522847 2.05706152,23.5 C2.05706152,22.9477153 2.50477678,22.5 3.05706152,22.5 L10,22.5 Z M27.2,22.5 C27.7522847,22.5 28.2,22.9477153 28.2,23.5 C28.2,24.0522847 27.7522847,24.5 27.2,24.5 L13,24.5 C12.4477153,24.5 12,24.0522847 12,23.5 C12,22.9477153 12.4477153,22.5 13,22.5 L27.2,22.5 Z M11.6448046,0.00390106025 C16.2552791,0.00390106025 20.1202784,3.34567342 20.8778626,7.78132493 L22.4141318,7.78114238 C26.3394837,7.78114238 29.5216101,10.9632688 29.5216101,14.8886207 C29.5216101,18.8139725 26.3394837,21.9960989 22.4141318,21.9960989 L6.3643725,21.9960989 C3.11363406,21.9960989 0.478389876,19.3608548 0.478389876,16.1101163 C0.478389876,14.3537271 1.25446521,12.7285919 2.55099221,11.6260515 C2.36997055,10.8949486 2.27736657,10.1391431 2.27736657,9.37133913 C2.27736657,4.19784594 6.47131145,0.00390106025 11.6448046,0.00390106025 Z" id="Shape"></path>
                </g>
            </g>
        </g>
    </g>
</svg>