<?xml version="1.0" encoding="UTF-8"?>
<svg width="30px" height="22px" viewBox="0 0 30 22" version="1.1" xmlns="http://www.w3.org/2000/svg" xmlns:xlink="http://www.w3.org/1999/xlink">
    <!-- Generator: Sketch 58 (84663) - https://sketch.com -->
    <title>Cloudy-2</title>
    <desc>Created with Sketch.</desc>
    <g id="Page-1" stroke="none" stroke-width="1" fill="none" fill-rule="evenodd">
        <g id="Weather-Glyph" transform="translate(-461.000000, -188.000000)">
            <g id="Cloudy-2" transform="translate(460.000000, 183.000000)">
                <rect id="Rectangle" x="0" y="0" width="32" height="32"></rect>
                <g id="Group-2" transform="translate(1.000000, 5.000000)" fill="#404852" fill-rule="nonzero">
                    <g id="Group-2-Copy-2" transform="translate(15.000000, 11.000000) scale(-1, 1) translate(-15.000000, -11.000000) ">
                        <path d="M18.3551954,0.00390106025 C23.5286886,0.00390106025 27.7226334,4.19784594 27.7226334,9.37133913 C27.7226334,10.1391431 27.6300295,10.8949486 27.4490078,11.6260515 C28.7455348,12.7285919 29.5216101,14.3537271 29.5216101,16.1101163 C29.5216101,19.3608548 26.8863659,21.9960989 23.6356275,21.9960989 L7.58586816,21.9960989 C3.66051629,21.9960989 0.478389876,18.8139725 0.478389876,14.8886207 C0.478389876,12.1484847 2.02900658,9.77051474 4.30062859,8.58432209 C3.70422583,7.69309398 3.37563892,6.63690226 3.37563892,5.53092102 C3.37563892,2.49335489 5.8380728,0.0309210178 8.87563892,0.0309210178 C10.421206,0.0309210178 11.8604523,0.673843079 12.8856379,1.76631693 C14.4274801,0.655967976 16.3186069,0.00390106025 18.3551954,0.00390106025 Z M8.87563892,2.03092102 C6.9426423,2.03092102 5.37563892,3.59792439 5.37563892,5.53092102 C5.37563892,6.4264909 5.71203174,7.2668191 6.30862711,7.91012067 L6.29860977,7.89741733 C6.71609394,7.82104213 7.1463215,7.78114238 7.58586816,7.78114238 L9.12213736,7.78132493 C9.4271647,5.99539156 10.2359419,4.38678933 11.3943016,3.10224158 C10.7445272,2.42594725 9.84378118,2.03092102 8.87563892,2.03092102 Z" id="Shape"></path>
                    </g>
                </g>
            </g>
        </g>
    </g>
</svg>