<?xml version="1.0" encoding="UTF-8"?>
<svg width="30px" height="26px" viewBox="0 0 30 26" version="1.1" xmlns="http://www.w3.org/2000/svg" xmlns:xlink="http://www.w3.org/1999/xlink">
    <!-- Generator: Sketch 58 (84663) - https://sketch.com -->
    <title>Cloudy-1</title>
    <desc>Created with Sketch.</desc>
    <g id="Page-1" stroke="none" stroke-width="1" fill="none" fill-rule="evenodd">
        <g id="Weather-Glyph" transform="translate(-317.000000, -186.000000)">
            <g id="Cloudy-1" transform="translate(316.000000, 183.000000)">
                <rect id="Rectangle" x="0" y="0" width="32" height="32"></rect>
                <g id="Group-2" transform="translate(1.000000, 3.000000)" fill="#404852" fill-rule="nonzero">
                    <path d="M19.8720378,7.69952773 C24.1671269,7.69952773 27.6489846,11.1813854 27.6489846,15.4764745 C27.6489846,15.835139 27.624633,16.1907126 27.5765601,16.5412259 L27.5206034,16.8899797 L27.4489725,17.2349223 L27.6278507,17.4025627 C28.5581773,18.3185752 29.10601,19.5802023 29.10601,20.934338 C29.10601,23.6001039 27.001849,25.7744166 24.3637952,25.887008 L24.14876,25.891588 L11.1497554,25.891588 C7.86555962,25.891588 5.2031929,23.2292213 5.2031929,19.9450255 C5.2031929,16.7354705 7.74591815,14.1198009 10.9268205,14.0025646 L11.1497554,13.998463 L12.2354243,13.998031 C12.9281665,10.3945052 16.0995042,7.69952773 19.8720378,7.69952773 Z M8.14668135,-3.55271368e-15 C11.3631823,-3.55271368e-15 14.0857536,2.21379163 14.8286606,5.22759657 L14.8831712,5.46716486 L15.7171919,5.46716486 C17.0009416,5.46716486 18.2080534,5.92810349 19.1484323,6.72926957 C15.5223779,7.02740096 12.4628994,9.54172315 11.4496683,12.9983436 L11.1497554,12.998463 C8.75544914,12.998463 6.64406595,14.2098007 5.39501945,16.0530626 L4.43469765,16.053909 C1.98548177,16.053909 1.88293825e-13,14.0684272 1.88293825e-13,11.6192113 C1.88293825e-13,10.3591346 0.530341852,9.18850228 1.42443234,8.36236161 C1.3186235,7.88000033 1.26462607,7.38439624 1.26462607,6.88205527 C1.26462607,3.0812011 4.34582717,-3.55271368e-15 8.14668135,-3.55271368e-15 Z" id="Shape"></path>
                </g>
            </g>
        </g>
    </g>
</svg>