<?xml version="1.0" encoding="UTF-8"?>
<svg width="29px" height="22px" viewBox="0 0 29 22" version="1.1" xmlns="http://www.w3.org/2000/svg" xmlns:xlink="http://www.w3.org/1999/xlink">
    <!-- Generator: Sketch 58 (84663) - https://sketch.com -->
    <title>Direction-2</title>
    <desc>Created with Sketch.</desc>
    <g id="Page-1" stroke="none" stroke-width="1" fill="none" fill-rule="evenodd">
        <g id="Weather-Glyph" transform="translate(-246.000000, -407.000000)" fill="#404852" fill-rule="nonzero">
            <g id="Direction-2" transform="translate(244.000000, 402.000000)">
                <path d="M16,5 C16.5522847,5 17,5.44771525 17,6 L17.0004624,8.100112 C18.9593105,8.49793068 20.502232,10.040925 20.8999437,11.999812 L27.585,12 L25.2928932,9.70710678 C24.9324093,9.34662282 24.9046797,8.77939176 25.2097046,8.38710056 L25.2928932,8.29289322 C25.6533772,7.93240926 26.2206082,7.90467972 26.6128994,8.20970461 L26.7071068,8.29289322 L30.7071068,12.2928932 C31.0675907,12.6533772 31.0953203,13.2206082 30.7902954,13.6128994 L30.7071068,13.7071068 L26.7071068,17.7071068 C26.3165825,18.0976311 25.6834175,18.0976311 25.2928932,17.7071068 C24.9324093,17.3466228 24.9046797,16.7793918 25.2097046,16.3871006 L25.2928932,16.2928932 L27.585,14 L20.8997409,14.0011864 C20.5017658,15.9593132 18.9594283,17.5016863 17.0013205,17.8997136 L17,26 C17,26.5522847 16.5522847,27 16,27 C15.4871642,27 15.0644928,26.6139598 15.0067277,26.1166211 L15,26 L14.9996791,17.8999167 C13.0410966,17.5022112 11.4983019,15.9596464 11.1002591,14.0011864 L6,14 C5.83081704,14 5.67144687,13.9579865 5.53175362,13.8838236 L3.70710678,15.7071068 C3.31658249,16.0976311 2.68341751,16.0976311 2.29289322,15.7071068 C1.93240926,15.3466228 1.90467972,14.7793918 2.20970461,14.3871006 L2.29289322,14.2928932 L3.58578644,13 L2.29289322,11.7071068 C1.90236893,11.3165825 1.90236893,10.6834175 2.29289322,10.2928932 C2.65337718,9.93240926 3.22060824,9.90467972 3.61289944,10.2097046 L3.70710678,10.2928932 L5.53175362,12.1161764 C5.63887416,12.0593063 5.7575652,12.0213408 5.88337887,12.0067277 L6,12 L11.1000563,11.999812 C11.4978357,10.0405918 13.0412145,8.49740568 15.0005374,8.09990906 L15,6 C15,5.44771525 15.4477153,5 16,5 Z" id="Shape"></path>
            </g>
        </g>
    </g>
</svg>