<?xml version="1.0" encoding="UTF-8"?>
<svg width="28px" height="27px" viewBox="0 0 28 27" version="1.1" xmlns="http://www.w3.org/2000/svg" xmlns:xlink="http://www.w3.org/1999/xlink">
    <!-- Generator: Sketch 58 (84663) - https://sketch.com -->
    <title>Direction-1</title>
    <desc>Created with Sketch.</desc>
    <g id="Page-1" stroke="none" stroke-width="1" fill="none" fill-rule="evenodd">
        <g id="Weather-Glyph" transform="translate(-174.000000, -402.000000)" fill="#404852" fill-rule="nonzero">
            <g id="Direction-1" transform="translate(172.000000, 400.000000)">
                <path d="M22.3944487,2 C22.9728314,2 23.538273,2.17120194 24.0195164,2.49203091 C25.3657666,3.38953103 25.7295504,5.20845002 24.8320503,6.5547002 C24.7602857,6.66234709 24.6712619,6.75159124 24.5710959,6.82120926 C24.7683357,7.17999551 24.9041917,7.5778821 24.9645926,8.00029296 L26,8 C26.5522847,8 27,8.44771525 27,9 C27,9.51283584 26.6139598,9.93550716 26.1166211,9.99327227 L26,10 L25.477,10 L25.8143047,10.8431793 C26.4360237,12.3974768 25.6800194,14.1614868 24.1257219,14.7832058 C23.9902147,14.8374086 23.8512642,14.881637 23.7099815,14.9156768 L22.9761871,18.2169305 C22.9326769,18.4127262 22.8334453,18.584405 22.6973725,18.7167279 C22.2240181,20.0138142 21.2376216,21.0422953 20.001033,21.5827524 L20,25 L26.585,25 L26.2928932,24.7071068 C25.9324093,24.3466228 25.9046797,23.7793918 26.2097046,23.3871006 L26.2928932,23.2928932 C26.6533772,22.9324093 27.2206082,22.9046797 27.6128994,23.2097046 L27.7071068,23.2928932 L29.7071068,25.2928932 C30.0675907,25.6533772 30.0953203,26.2206082 29.7902954,26.6128994 L29.7071068,26.7071068 L27.7071068,28.7071068 C27.3165825,29.0976311 26.6834175,29.0976311 26.2928932,28.7071068 C25.9324093,28.3466228 25.9046797,27.7793918 26.2097046,27.3871006 L26.2928932,27.2928932 L26.584,27 L10.414,27 L8.70710678,28.7071068 C8.34662282,29.0675907 7.77939176,29.0953203 7.38710056,28.7902954 L7.29289322,28.7071068 C6.93240926,28.3466228 6.90467972,27.7793918 7.20970461,27.3871006 L7.29289322,27.2928932 L7.584,27 L6.414,27 L4.70710678,28.7071068 C4.31658249,29.0976311 3.68341751,29.0976311 3.29289322,28.7071068 C2.93240926,28.3466228 2.90467972,27.7793918 3.20970461,27.3871006 L3.29289322,27.2928932 L4.58578644,26 L3.29289322,24.7071068 C2.90236893,24.3165825 2.90236893,23.6834175 3.29289322,23.2928932 C3.62333685,22.9624496 4.12750547,22.9116121 4.51140295,23.1403808 L4.61289944,23.2097046 L4.70710678,23.2928932 L6.415,25 L7.585,25 L7.29289322,24.7071068 C6.93240926,24.3466228 6.90467972,23.7793918 7.20970461,23.3871006 L7.29289322,23.2928932 C7.65337718,22.9324093 8.22060824,22.9046797 8.61289944,23.2097046 L8.70710678,23.2928932 L10.415,25 L14,25 L13.999812,21.8999437 C11.8260801,21.4586121 10.1644714,19.6070886 10.0115056,17.3418929 L9.95042449,17.4108209 C9.35316332,18.1148621 9,19.0234787 9,20 C9,20.5522847 8.55228475,21 8,21 C7.44771525,21 7,20.5522847 7,20 C7,17.5454933 8.48713266,15.3775718 10.6934639,14.4594938 C10.9395007,14.0416975 11.2457523,13.6626637 11.5996362,13.334247 C11.1025479,13.1148296 10.5603729,13 10,13 C7.790861,13 6,14.790861 6,17 C6,17.5522847 5.55228475,18 5,18 C4.44771525,18 4,17.5522847 4,17 C4,13.6862915 6.6862915,11 10,11 C10.5389599,11 11.0681392,11.0713804 11.5765516,11.2095044 C10.9204524,9.89900653 9.56521329,9 8,9 C5.790861,9 4,10.790861 4,13 C4,13.5522847 3.55228475,14 3,14 C2.44771525,14 2,13.5522847 2,13 C2,9.6862915 4.6862915,7 8,7 C11.0128077,7 13.5069701,9.22058484 13.9350919,12.1143594 C14.2093767,12.0540926 14.4930437,12.0169995 14.7831104,12.0046195 L15,12 L16.7559693,12 L18.0421737,7.71265211 C18.0692462,7.62241042 18.1080432,7.53863646 18.1564599,7.46259335 C18.2591676,7.13070098 18.4093026,6.82121305 18.5985183,6.54137945 L18.2031808,6.39419327 C17.3174481,6.06204352 16.7306579,5.21530497 16.7306579,4.26934207 C16.7306579,3.06824085 17.6637726,2.08508024 18.8446269,2.00523544 L19,2 L22.3944487,2 Z M18,22 L16,22 L16,25 L18,25 L18,22 Z M23.3792077,10.1406017 L23.2501529,10.2106522 C22.9164394,10.4144588 22.6694825,10.7516068 22.5883484,11.1572775 L22.3728129,12.2349548 C22.3645526,12.2762563 22.3603922,12.3182728 22.3603922,12.3603922 C22.3603922,12.7136378 22.6467544,13 23,13 C23.1311758,13 23.2611468,12.9749699 23.3829405,12.9262524 C23.911671,12.7147602 24.1688435,12.1146911 23.9573513,11.5859606 L23.3792077,10.1406017 Z M22.3944487,4 L19,4 C18.8512465,4 18.7306579,4.12058855 18.7306579,4.26934207 C18.7306579,4.35916109 18.7752304,4.44144305 18.8468835,4.49094711 L18.9054277,4.52153491 L20.3511234,5.06367082 C20.4085813,5.0852175 20.4628895,5.11148631 20.5137727,5.14187122 C20.8264245,5.04936129 21.1581152,5 21.5,5 C22.1080375,5 22.6798615,5.15504885 23.1780914,5.42776608 L23.2266072,5.3442557 C23.4331408,4.93104013 23.3044479,4.41901938 22.910116,4.1561315 C22.7574076,4.05432589 22.5779814,4 22.3944487,4 Z" id="Shape"></path>
            </g>
        </g>
    </g>
</svg>