<?xml version="1.0" encoding="UTF-8"?>
<svg width="22px" height="29px" viewBox="0 0 22 29" version="1.1" xmlns="http://www.w3.org/2000/svg" xmlns:xlink="http://www.w3.org/1999/xlink">
    <!-- Generator: Sketch 58 (84663) - https://sketch.com -->
    <title>Haze</title>
    <desc>Created with Sketch.</desc>
    <g id="Page-1" stroke="none" stroke-width="1" fill="none" fill-rule="evenodd">
        <g id="Weather-Glyph" transform="translate(-753.000000, -402.000000)" fill="#404852" fill-rule="nonzero">
            <g id="Haze" transform="translate(748.000000, 400.000000)">
                <path d="M12.8303499,2.53476919 L12.8878955,2.63642671 L14.0081936,4.91203227 C15.7241049,8.39747698 15.4908852,13.350523 13.4797791,16.4042954 L13.1512475,16.8850145 C11.7282957,19.1029521 11.5964306,22.8982775 12.9122054,25.3927672 L13.0053329,25.562636 L13.1019843,25.7258653 L14.8423831,28.5540133 C15.1318341,29.0243712 14.9851801,29.640318 14.5148222,29.9297691 C14.0780613,30.198545 13.5157671,30.0912916 13.2059171,29.6980035 L13.1390665,29.6022082 L11.3986677,26.7740601 C11.3097363,26.6295466 11.2245377,26.4800401 11.1432131,26.3258621 C9.48598131,23.1840269 9.65065504,18.5832103 11.5051584,15.7477227 L11.8363281,15.2633109 C13.3721264,12.892628 13.6017544,8.91002214 12.3445369,6.07497739 L12.2138523,5.79540032 L11.0935541,3.51979476 C10.8496188,3.02430108 11.0535471,2.42487541 11.5490408,2.18094006 C11.9737497,1.97185262 12.4748167,2.09180787 12.7629265,2.4423789 L12.8303499,2.53476919 Z M6.54904079,2.18094006 C7.00914206,1.95442867 7.55885816,2.11408543 7.83034988,2.53476919 L7.88789549,2.63642671 L9.00819361,4.91203227 C10.7241049,8.39747698 10.4908852,13.350523 8.47977908,16.4042954 L8.15124752,16.8850145 C6.72829574,19.1029521 6.59643061,22.8982775 7.91220542,25.3927672 L8.00533287,25.562636 L8.00533287,25.562636 L8.10198433,25.7258653 L9.84238313,28.5540133 C10.1318341,29.0243712 9.98518014,29.640318 9.51482224,29.9297691 C9.07806133,30.198545 8.51576711,30.0912916 8.20591706,29.6980035 L8.1390665,29.6022082 L6.3986677,26.7740601 C6.30973631,26.6295466 6.22453771,26.4800401 6.14321306,26.3258621 C4.48598131,23.1840269 4.65065504,18.5832103 6.50515836,15.7477227 L6.83632812,15.2633109 C8.37212643,12.892628 8.6017544,8.91002214 7.34453685,6.07497739 L7.21385225,5.79540032 L6.09355414,3.51979476 C5.84961878,3.02430108 6.0535471,2.42487541 6.54904079,2.18094006 Z M18.3303499,2.53476919 L18.3878955,2.63642671 L19.5081936,4.91203227 C21.2241049,8.39747698 20.9908852,13.350523 18.9797791,16.4042954 L18.6512475,16.8850145 C17.2282957,19.1029521 17.0964306,22.8982775 18.4122054,25.3927672 L18.5053329,25.562636 L18.6019843,25.7258653 L20.3423831,28.5540133 C20.6318341,29.0243712 20.4851801,29.640318 20.0148222,29.9297691 C19.5780613,30.198545 19.0157671,30.0912916 18.7059171,29.6980035 L18.6390665,29.6022082 L16.8986677,26.7740601 C16.8097363,26.6295466 16.7245377,26.4800401 16.6432131,26.3258621 C14.9859813,23.1840269 15.150655,18.5832103 17.0051584,15.7477227 L17.3363281,15.2633109 C18.8721264,12.892628 19.1017544,8.91002214 17.8445369,6.07497739 L17.7138523,5.79540032 L16.5935541,3.51979476 C16.3496188,3.02430108 16.5535471,2.42487541 17.0490408,2.18094006 C17.5091421,1.95442867 18.0588582,2.11408543 18.3303499,2.53476919 Z M23.8303499,2.53476919 L23.8878955,2.63642671 L25.0081936,4.91203227 C26.7241049,8.39747698 26.4908852,13.350523 24.4797791,16.4042954 L24.1512475,16.8850145 C22.7282957,19.1029521 22.5964306,22.8982775 23.9122054,25.3927672 L24.0053329,25.562636 L24.1019843,25.7258653 L25.8423831,28.5540133 C26.1318341,29.0243712 25.9851801,29.640318 25.5148222,29.9297691 C25.0780613,30.198545 24.5157671,30.0912916 24.2059171,29.6980035 L24.1390665,29.6022082 L22.3986677,26.7740601 C22.3097363,26.6295466 22.2245377,26.4800401 22.1432131,26.3258621 C20.4859813,23.1840269 20.650655,18.5832103 22.5051584,15.7477227 L22.8363281,15.2633109 C24.3721264,12.892628 24.6017544,8.91002214 23.3445369,6.07497739 L23.2138523,5.79540032 L22.0935541,3.51979476 C21.8496188,3.02430108 22.0535471,2.42487541 22.5490408,2.18094006 C23.0091421,1.95442867 23.5588582,2.11408543 23.8303499,2.53476919 Z" id="Shape"></path>
            </g>
        </g>
    </g>
</svg>