<?xml version="1.0" encoding="UTF-8"?>
<svg width="26px" height="26px" viewBox="0 0 26 26" version="1.1" xmlns="http://www.w3.org/2000/svg" xmlns:xlink="http://www.w3.org/1999/xlink">
    <!-- Generator: Sketch 58 (84663) - https://sketch.com -->
    <title>Night wind</title>
    <desc>Created with Sketch.</desc>
    <g id="Page-1" stroke="none" stroke-width="1" fill="none" fill-rule="evenodd">
        <g id="Weather-Glyph" transform="translate(-247.000000, -330.000000)">
            <g id="Night-wind" transform="translate(244.000000, 327.000000)">
                <rect id="Rectangle" x="0" y="0" width="32" height="32"></rect>
                <g id="Group-2" transform="translate(3.000000, 3.000000)" fill="#404852" fill-rule="nonzero">
                    <path d="M11.1560718,1.2266377 C10.9699573,2.02934274 10.8751373,2.85506291 10.8751373,3.69405194 C10.8751373,9.70022441 15.7441021,14.5691892 21.7502746,14.5691892 C22.5893834,14.5691892 23.4153805,14.4743411 24.2176085,14.288318 C24.9383988,14.1211789 25.5847861,14.7675609 25.4176528,15.4883526 C24.0752601,21.2776572 18.8967104,25.4443265 12.8751373,25.4443265 C10.5722242,25.4443265 8.41052654,24.8397114 6.54012278,23.7805596 C6.94877599,23.8697816 7.3366131,23.9077947 7.77935788,23.9077947 C9.45418709,23.9077947 10.8291994,23.3029755 11.7266842,22.1089547 C12.3903574,21.2259986 12.2125936,19.9722077 11.3296374,19.3085344 C11.2124114,19.2204216 11.0883965,19.1470431 10.9602879,19.0916579 C11.2441672,18.8658891 11.5005799,18.6024743 11.7266842,18.3016634 C12.3903574,17.4187072 12.2125936,16.1649164 11.3296374,15.5012431 C10.5687287,14.9293066 9.52178398,14.9781656 8.81916428,15.58732 L8.69161204,15.7080876 L8.6207016,15.788586 L8.47782418,15.9582745 C8.41041859,16.0301897 8.20771746,16.1005034 7.77935788,16.1005034 C7.53426499,16.1005034 7.33204271,16.0653407 6.96356863,15.9344316 L6.79486281,15.8722891 L6.22976887,15.6476882 L5.95264065,15.5401519 C5.12613036,15.2299935 4.50904651,15.0999286 3.77935788,15.0999286 C2.62398082,15.0999286 1.51326952,15.4212528 0.475204548,16.0443908 C0.165460778,14.9399807 3.64153152e-14,13.7739077 3.64153152e-14,12.5691892 C3.64153152e-14,6.54761513 4.16666835,1.36907114 9.95602414,0.0266173789 C10.6768082,-0.140520272 11.323193,0.505849797 11.1560718,1.2266377 Z M10.728794,20.1079012 C11.1702721,20.4397378 11.259154,21.0666333 10.9273174,21.5081113 C10.2221321,22.4462954 9.13882876,22.9077947 7.77935788,22.9077947 C7.02325448,22.9077947 6.47680179,22.7746581 5.61749681,22.4409375 L4.92245435,22.1651759 C4.43172789,21.9792685 4.12172512,21.907268 3.77935788,21.907268 C3.03819413,21.907268 2.32009952,22.165635 1.60110707,22.7064365 C1.1597385,23.0384187 0.532813773,22.9497436 0.200831503,22.508375 C-0.131150766,22.0670065 -0.0424756469,21.4400817 0.398892926,21.1080995 C1.4525597,20.3155675 2.58737034,19.907268 3.77935788,19.907268 C4.40004218,19.907268 4.90780098,20.0234364 5.59114819,20.2798183 L6.49540913,20.6351389 C7.037746,20.8371606 7.36629517,20.9077947 7.77935788,20.9077947 C8.47868447,20.9077947 8.94095809,20.7379447 9.24277567,20.4096537 L9.41018058,20.2108351 C9.75576881,19.8537618 10.3212758,19.8015904 10.728794,20.1079012 Z M3.77935788,16.0999766 C4.40004218,16.0999766 4.90780098,16.216145 5.59114819,16.472527 L5.85619761,16.5752896 L6.09890542,16.6730349 C6.89589766,16.9949882 7.27450345,17.1005034 7.77935788,17.1005034 C8.47868447,17.1005034 8.94095809,16.9306534 9.24277567,16.6023623 L9.41018058,16.4035438 C9.75576881,16.0464705 10.3212758,15.9942991 10.728794,16.3006098 C11.1702721,16.6324465 11.259154,17.2593419 10.9273174,17.70082 C10.2221321,18.639004 9.13882876,19.1005034 7.77935788,19.1005034 C7.02325448,19.1005034 6.47680179,18.9673668 5.61749681,18.6336462 L4.92245435,18.3578846 C4.43172789,18.1719771 4.12172512,18.0999766 3.77935788,18.0999766 C3.03819413,18.0999766 2.32009952,18.3583437 1.60110707,18.8991451 C1.1597385,19.2311274 0.532813773,19.1424522 0.200831503,18.7010837 C-0.131150766,18.2597151 -0.0424756469,17.6327904 0.398892926,17.3008081 C1.4525597,16.5082762 2.58737034,16.0999766 3.77935788,16.0999766 Z" id="Shape"></path>
                </g>
            </g>
        </g>
    </g>
</svg>