<?xml version="1.0" encoding="UTF-8"?>
<svg width="30px" height="22px" viewBox="0 0 30 22" version="1.1" xmlns="http://www.w3.org/2000/svg" xmlns:xlink="http://www.w3.org/1999/xlink">
    <!-- Generator: Sketch 58 (84663) - https://sketch.com -->
    <title>Night Cloud</title>
    <desc>Created with Sketch.</desc>
    <g id="Page-1" stroke="none" stroke-width="1" fill="none" fill-rule="evenodd">
        <g id="Weather-Glyph" transform="translate(-533.000000, -188.000000)">
            <g id="Night-Cloud" transform="translate(532.000000, 183.000000)">
                <rect id="Rectangle" x="0" y="0" width="32" height="32"></rect>
                <g id="Group-2" transform="translate(1.000000, 5.000000)" fill="#404852" fill-rule="nonzero">
                    <g id="Group-2-Copy-2" transform="translate(15.000000, 11.000000) scale(-1, 1) translate(-15.000000, -11.000000) ">
                        <path d="M18.3551954,0.00390106025 C23.5286886,0.00390106025 27.7226334,4.19784594 27.7226334,9.37133913 C27.7226334,10.1391431 27.6300295,10.8949486 27.4490078,11.6260515 C28.7455348,12.7285919 29.5216101,14.3537271 29.5216101,16.1101163 C29.5216101,19.3608548 26.8863659,21.9960989 23.6356275,21.9960989 L7.58586816,21.9960989 C3.66051629,21.9960989 0.478389876,18.8139725 0.478389876,14.8886207 C0.478389876,12.7285499 1.44198861,10.7935396 2.96277798,9.48999796 C2.18515606,8.75010078 1.6293222,7.7925363 1.38230962,6.72731003 C1.21516596,6.00651345 1.86155862,5.36012079 2.58235519,5.52726445 C2.84450088,5.58805274 3.1146282,5.61907167 3.38954651,5.61907167 C5.3529551,5.61907167 6.94461225,4.02741452 6.94461225,2.06400593 C6.94461225,1.78908762 6.91359332,1.5189603 6.85280503,1.25681461 C6.68566137,0.53601804 7.33205404,-0.110374625 8.05285061,0.0567690359 C9.612495,0.418430957 10.9226266,1.43646234 11.6721343,2.80908486 C13.3742273,1.07478686 15.7452659,0.00390106025 18.3551954,0.00390106025 Z M8.91744178,2.61690976 C8.65790507,5.24346698 6.56894939,7.33240242 3.94238298,7.59190785 C4.16563634,7.89119604 4.43587842,8.15553515 4.74397294,8.37337251 C5.61464758,7.99190577 6.57564465,7.78114238 7.58586816,7.78114238 L9.12213736,7.78132493 C9.31500147,6.65210662 9.70925667,5.59378246 10.265933,4.64344075 C10.2474034,4.60215935 10.2321636,4.55905889 10.2197643,4.51440555 C10.0061144,3.74499321 9.53975946,3.08124482 8.91744178,2.61690976 Z" id="Shape"></path>
                    </g>
                </g>
            </g>
        </g>
    </g>
</svg>