<?xml version="1.0" encoding="UTF-8"?>
<svg width="28px" height="15px" viewBox="0 0 28 15" version="1.1" xmlns="http://www.w3.org/2000/svg" xmlns:xlink="http://www.w3.org/1999/xlink">
    <!-- Generator: Sketch 58 (84663) - https://sketch.com -->
    <title>Rainbow</title>
    <desc>Created with Sketch.</desc>
    <g id="Page-1" stroke="none" stroke-width="1" fill="none" fill-rule="evenodd">
        <g id="Weather-Glyph" transform="translate(-102.000000, -408.000000)" fill="#404852" fill-rule="nonzero">
            <g id="Rainbow" transform="translate(100.000000, 400.000000)">
                <g id="Shape-+-Shape-+-Path-Mask">
                    <path d="M16,8 C23.7319865,8 30,14.2680135 30,22 C30,22.5522847 29.5522847,23 29,23 C28.4477153,23 28,22.5522847 28,22 C28,15.372583 22.627417,10 16,10 C9.372583,10 4,15.372583 4,22 C4,22.5522847 3.55228475,23 3,23 C2.44771525,23 2,22.5522847 2,22 C2,14.2680135 8.2680135,8 16,8 Z M16,12 C21.5228475,12 26,16.4771525 26,22 C26,22.5522847 25.5522847,23 25,23 C24.4477153,23 24,22.5522847 24,22 C24,17.581722 20.418278,14 16,14 C11.581722,14 8,17.581722 8,22 C8,22.5522847 7.55228475,23 7,23 C6.44771525,23 6,22.5522847 6,22 C6,16.4771525 10.4771525,12 16,12 Z M16,16 C19.3137085,16 22,18.6862915 22,22 C22,22.5522847 21.5522847,23 21,23 C20.4477153,23 20,22.5522847 20,22 C20,19.790861 18.209139,18 16,18 C13.790861,18 12,19.790861 12,22 C12,22.5522847 11.5522847,23 11,23 C10.4477153,23 10,22.5522847 10,22 C10,18.6862915 12.6862915,16 16,16 Z" id="Shape"></path>
                </g>
            </g>
        </g>
    </g>
</svg>