<?xml version="1.0" encoding="UTF-8"?>
<svg width="24px" height="28px" viewBox="0 0 24 28" version="1.1" xmlns="http://www.w3.org/2000/svg" xmlns:xlink="http://www.w3.org/1999/xlink">
    <!-- Generator: Sketch 58 (84663) - https://sketch.com -->
    <title>Rain Drops-2</title>
    <desc>Created with Sketch.</desc>
    <g id="Page-1" stroke="none" stroke-width="1" fill="none" fill-rule="evenodd">
        <g id="Weather-Glyph" transform="translate(-392.000000, -402.000000)" fill="#404852" fill-rule="nonzero">
            <g id="Rain-Drops-2" transform="translate(388.000000, 400.000000)">
                <path d="M16.8077358,16.4104553 C19.5977801,20.2330979 21,22.9674267 21,24.8 C21,27.6612626 18.7726311,30 16,30 C13.2273689,30 11,27.6612626 11,24.8 C11,22.9674267 12.4022199,20.2330979 15.1922642,16.4104553 C15.5917047,15.8631816 16.4082953,15.8631816 16.8077358,16.4104553 Z M9.80773577,2.41045532 C12.5977801,6.23309793 14,8.96742667 14,10.8 C14,13.6612626 11.7726311,16 9,16 C6.22736894,16 4,13.6612626 4,10.8 C4,8.96742667 5.40221987,6.23309793 8.19226423,2.41045532 C8.59170468,1.86318156 9.40829532,1.86318156 9.80773577,2.41045532 Z M22.1922642,2.41045532 C22.5917047,1.86318156 23.4082953,1.86318156 23.8077358,2.41045532 C26.5977801,6.23309793 28,8.96742667 28,10.8 C28,13.6612626 25.7726311,16 23,16 C20.2273689,16 18,13.6612626 18,10.8 C18,8.96742667 19.4022199,6.23309793 22.1922642,2.41045532 Z" id="Shape"></path>
            </g>
        </g>
    </g>
</svg>