<?xml version="1.0" encoding="UTF-8"?>
<svg width="28px" height="23px" viewBox="0 0 28 23" version="1.1" xmlns="http://www.w3.org/2000/svg" xmlns:xlink="http://www.w3.org/1999/xlink">
    <!-- Generator: Sketch 58 (84663) - https://sketch.com -->
    <title>Rain-5</title>
    <desc>Created with Sketch.</desc>
    <g id="Page-1" stroke="none" stroke-width="1" fill="none" fill-rule="evenodd">
        <g id="Weather-Glyph" transform="translate(-174.000000, -260.000000)" fill="#404852" fill-rule="nonzero">
            <g id="Rain-5" transform="translate(172.000000, 255.000000)">
                <path d="M13.4472136,13.1055728 C13.9411921,13.3525621 14.1414164,13.9532351 13.8944272,14.4472136 L12.618034,17 L15,17 C15.7236584,17 16.2077171,17.7448511 15.9138115,18.4061385 L11.9138115,27.4061385 C11.6895075,27.9108226 11.0985457,28.1381156 10.5938615,27.9138115 C10.0891774,27.6895075 9.86188437,27.0985457 10.0861885,26.5938615 L13.461238,19 L11,19 C10.256618,19 9.77312226,18.2176875 10.1055728,17.5527864 L12.1055728,13.5527864 C12.3525621,13.0588079 12.9532351,12.8585836 13.4472136,13.1055728 Z M12,5 C13.9297407,5 15.6965142,5.91954024 16.8104091,7.41276228 C17.4994406,7.1420232 18.2398386,7 19,7 C21.9785018,7 24.4501022,9.17030244 24.9196659,12.0157718 C27.7611671,12.2301641 30,14.6036284 30,17.5 C30,20.5375661 27.5375661,23 24.5,23 L19.969,23 L22.8270677,16.5827562 C23.34845,15.4116513 22.6494196,14.1089087 21.477532,13.8255361 L21.3346836,13.796498 C21.7447751,12.8548026 21.3724158,11.7396679 20.4525663,11.2414161 C19.4813272,10.7153282 18.2675039,11.0761946 17.7414161,12.0474337 L16.2414161,14.8166645 C15.975379,15.3078098 15.9384588,15.8379901 16.0749911,16.311177 C15.7694027,16.1156758 15.4033064,16 15,16 L14.236068,16 L14.7888544,14.8944272 C15.2828329,13.9064702 14.8823842,12.7051241 13.8944272,12.2111456 C12.9064702,11.7171671 11.7051241,12.1176158 11.2111456,13.1055728 L9.21114562,17.1055728 C8.54624453,18.435375 9.51323596,20 11,20 L11.922476,20 L10.589,23 L7.5,23 C4.46243388,23 2,20.5375661 2,17.5 C2,14.9436156 3.74567455,12.7900714 6.11533239,12.1757345 C6.03900013,11.7919092 6,11.3984692 6,11 C6,7.6862915 8.6862915,5 12,5 Z M16.924658,17.4585735 C17.2093582,17.6407659 17.5473272,17.7537248 17.9208752,17.76775 L15.59,23 L14.966,23 L16.8276231,18.8122769 C17.0042977,18.414759 17.0404121,18.0021431 16.9641432,17.6202349 L16.924658,17.4585735 Z M19.9762831,12.120708 C20.4619027,12.383752 20.6423359,12.9906636 20.379292,13.4762831 L19.6789453,14.7692308 L21,14.7692308 C21.7239326,14.7692308 22.2079904,15.5145987 21.9135533,16.1759497 L18.8747508,22.9998083 L16.6857508,22.9998083 L19.4601677,16.7692308 L18,16.7692308 C17.2422309,16.7692308 16.7597954,15.9592479 17.120708,15.2929476 L18.620708,12.5237169 C18.883752,12.0380973 19.4906636,11.8576641 19.9762831,12.120708 Z" id="Shape"></path>
            </g>
        </g>
    </g>
</svg>