<?xml version="1.0" encoding="UTF-8"?>
<svg width="30px" height="23px" viewBox="0 0 30 23" version="1.1" xmlns="http://www.w3.org/2000/svg" xmlns:xlink="http://www.w3.org/1999/xlink">
    <!-- Generator: Sketch 58 (84663) - https://sketch.com -->
    <title>Rain wind</title>
    <desc>Created with Sketch.</desc>
    <g id="Page-1" stroke="none" stroke-width="1" fill="none" fill-rule="evenodd">
        <g id="Weather-Glyph" transform="translate(-605.000000, -188.000000)">
            <g id="Rain-wind" transform="translate(604.000000, 183.000000)">
                <rect id="Rectangle" x="0" y="0" width="32" height="32"></rect>
                <g id="Group-3" transform="translate(1.000000, 5.000000)">
                    <path d="M9.42889558,17.5852816 C9.89399476,17.8013449 10.1146794,18.329527 9.9575333,18.8049087 L9.91450104,18.9135087 L8.52084155,21.9135087 C8.288158,22.4143848 7.69349045,22.6317977 7.19261441,22.3991142 C6.72751523,22.1830509 6.50683063,21.6548687 6.66397669,21.1794871 L6.70700895,21.070887 L8.10066844,18.070887 C8.33335199,17.570011 8.92801954,17.352598 9.42889558,17.5852816 Z M13.4288956,17.5852816 C13.8939948,17.8013449 14.1146794,18.329527 13.9575333,18.8049087 L13.914501,18.9135087 L12.5208416,21.9135087 C12.288158,22.4143848 11.6934905,22.6317977 11.1926144,22.3991142 C10.7275152,22.1830509 10.5068306,21.6548687 10.6639767,21.1794871 L10.7070089,21.070887 L12.1006684,18.070887 C12.333352,17.570011 12.9280195,17.352598 13.4288956,17.5852816 Z M17.4288956,17.5852816 C17.8939948,17.8013449 18.1146794,18.329527 17.9575333,18.8049087 L17.914501,18.9135087 L16.5208416,21.9135087 C16.288158,22.4143848 15.6934905,22.6317977 15.1926144,22.3991142 C14.7275152,22.1830509 14.5068306,21.6548687 14.6639767,21.1794871 L14.7070089,21.070887 L16.1006684,18.070887 C16.333352,17.570011 16.9280195,17.352598 17.4288956,17.5852816 Z M21.4288956,17.5852816 C21.8939948,17.8013449 22.1146794,18.329527 21.9575333,18.8049087 L21.914501,18.9135087 L20.5208416,21.9135087 C20.288158,22.4143848 19.6934905,22.6317977 19.1926144,22.3991142 C18.7275152,22.1830509 18.5068306,21.6548687 18.6639767,21.1794871 L18.7070089,21.070887 L20.1006684,18.070887 C20.333352,17.570011 20.9280195,17.352598 21.4288956,17.5852816 Z M11.1664148,0 C15.6846078,0 19.486884,3.20934044 20.350272,7.51243774 L20.3994415,7.77724132 L21.935742,7.77724132 C25.8610938,7.77724132 29.0432202,10.9593677 29.0432202,14.8847196 C29.0432202,17.8802932 27.1728081,20.5231559 24.4104251,21.5492348 L24.2472106,21.5945561 L22.1849873,21.9827409 L22,22 L21.582,22 L22.8214173,19.3348196 L22.8872088,19.1732881 C23.2242897,18.1589453 22.7734008,17.1072382 21.8502064,16.6783653 C20.8961568,16.2351585 19.7719639,16.6084534 19.2650597,17.5103614 L19.1937521,17.6495762 L18.9677464,18.1375579 C18.8761712,17.6161458 18.5849234,17.1506938 18.1443298,16.8464582 L17.992003,16.7511617 L17.8502064,16.6783653 C16.8961568,16.2351585 15.7719639,16.6084534 15.2650597,17.5103614 L15.1937521,17.6495762 L14.9677464,18.1375579 C14.8761712,17.6161458 14.5849234,17.1506938 14.1443298,16.8464582 L13.992003,16.7511617 L13.8502064,16.6783653 C12.8961568,16.2351585 11.7719639,16.6084534 11.2650597,17.5103614 L11.1937521,17.6495762 L10.9677464,18.1375579 C10.8761712,17.6161458 10.5849234,17.1506938 10.1443298,16.8464582 L9.99200296,16.7511617 L9.85020642,16.6783653 C8.89615681,16.2351585 7.77196389,16.6084534 7.26505968,17.5103614 L7.19375214,17.6495762 L5.80009265,20.6495762 L5.73430117,20.8111076 C5.61303144,21.1760322 5.59374903,21.5457929 5.66175521,21.8896478 L4.38919401,21.7814672 L4.1854218,21.7425315 C1.71939919,20.9993407 -4.26325641e-14,18.7205532 -4.26325641e-14,16.1062153 C-4.26325641e-14,14.3499312 0.775981663,12.7248771 2.07238902,11.6223323 C1.89151944,10.8907441 1.79897669,10.1349973 1.79897669,9.36743807 C1.79897669,4.19394488 5.99292157,0 11.1664148,0 Z M17.6535861,21.8458256 C17.662667,21.8976839 17.6737227,21.9489895 17.6867039,21.9996389 L17.582,21.999 L17.6535861,21.8458256 Z M13.6535861,21.8458256 C13.662608,21.8973472 13.6735792,21.9483232 13.6864513,21.9986521 L13.582,21.998 L13.6535861,21.8458256 Z M9.6535861,21.8458256 C9.66254904,21.8970104 9.6734359,21.9476568 9.68619911,21.9976652 L9.583,21.997 L9.6535861,21.8458256 Z" id="Shape" fill="#404852" fill-rule="nonzero"></path>
                    <g id="Group-2" transform="translate(6.521610, 16.996099)"></g>
                </g>
            </g>
        </g>
    </g>
</svg>