<?xml version="1.0" encoding="UTF-8"?>
<svg width="28px" height="29px" viewBox="0 0 28 29" version="1.1" xmlns="http://www.w3.org/2000/svg" xmlns:xlink="http://www.w3.org/1999/xlink">
    <!-- Generator: Sketch 58 (84663) - https://sketch.com -->
    <title>Rain Drops-3</title>
    <desc>Created with Sketch.</desc>
    <g id="Page-1" stroke="none" stroke-width="1" fill="none" fill-rule="evenodd">
        <g id="Weather-Glyph" transform="translate(-462.000000, -401.000000)" fill="#404852" fill-rule="nonzero">
            <g id="Rain-Drops-3" transform="translate(460.000000, 400.000000)">
                <g id="Group-2" transform="translate(2.000000, 1.000000)">
                    <g id="Group-3" transform="translate(0.000000, 0.326169)">
                        <path d="M14.0945004,0.0472502181 C14.6073363,0.0472502181 15.0300076,0.433290408 15.0877727,0.930629093 L15.0945004,1.04725022 L15.095141,2.72634998 C17.6529728,2.91565475 20.0670231,3.82765061 22.0929101,5.33795074 C22.511135,4.65972846 23.0516594,3.9025731 23.712265,3.05781643 C24.1126377,2.54583546 24.8873623,2.54583546 25.287735,3.05781643 C27.091498,5.36439813 28,7.01787175 28,8.2238307 C28,9.32076418 27.4816515,10.2956836 26.6750151,10.9269184 L26.510088,11.0482502 L26.6325686,11.3563488 C27.1981043,12.8544742 27.4919128,14.4508984 27.4919128,16.0868467 C27.4919128,16.6391315 27.0441976,17.0868467 26.4919128,17.0868467 C25.9396281,17.0868467 25.4919128,16.6391315 25.4919128,16.0868467 L25.490088,16.0102502 L20.2877452,16.0118215 C20.1653884,16.4258185 19.7822836,16.727912 19.3286212,16.727912 C18.8749587,16.727912 18.491854,16.4258185 18.3694971,16.0118215 L15.094088,16.0102502 L15.0945004,23.3990718 C15.0945004,26.4224554 13.8709446,28.1990718 11.4774401,28.1990718 C9.08393556,28.1990718 7.8603797,26.4224554 7.8603797,23.3990718 C7.8603797,22.846787 8.30809495,22.3990718 8.8603797,22.3990718 C9.41266445,22.3990718 9.8603797,22.846787 9.8603797,23.3990718 C9.8603797,25.4423548 10.3815308,26.1990718 11.4774401,26.1990718 C12.531199,26.1990718 13.0535617,25.4994444 13.0921846,23.6291557 L13.0945004,23.3990718 L13.094088,16.0102502 L9.81950375,16.0118215 C9.69714691,16.4258185 9.31404217,16.727912 8.8603797,16.727912 C8.40671723,16.727912 8.02361249,16.4258185 7.90125565,16.0118215 L2.69733749,16.0106364 L2.69708804,16.0868467 L2.69708804,16.0868467 C2.69708804,16.6391315 2.24937279,17.0868467 1.69708804,17.0868467 C1.14480329,17.0868467 0.697088037,16.6391315 0.697088037,16.0868467 C0.697088037,9.02414166 6.16217408,3.2378758 13.09418,2.72621532 L13.0945004,1.04725022 C13.0945004,0.494965468 13.5422157,0.0472502181 14.0945004,0.0472502181 Z M10.2259647,5.362182 C6.4662956,6.71891919 3.62444329,9.99669829 2.88571293,14.0107953 L7.91059946,14.0101198 C8.11736128,10.5079088 8.95237613,7.42339339 10.2259647,5.362182 Z M17.9640476,5.362716 C19.2369792,7.42437852 20.0717183,10.5086088 20.2784164,14.0103552 L25.3033993,14.0103552 C25.1584236,13.2221963 24.9309163,12.4547458 24.6246556,11.7175541 L24.608088,11.6702502 L24.5,11.6738307 C22.6357589,11.6738307 21.1051617,10.234744 21.0051933,8.4135498 L21,8.2238307 C21,7.9054995 21.0633023,7.55598654 21.1896633,7.17151046 L21.4342201,7.36699353 C20.3983756,6.49411877 19.2249224,5.81744495 17.9640476,5.362716 Z M24.5,5.34000435 L24.3283528,5.58311082 C23.4408274,6.85708781 23,7.76771181 23,8.2238307 C23,9.0200712 23.6671015,9.6738307 24.5,9.6738307 C25.3328985,9.6738307 26,9.0200712 26,8.2238307 C26,7.73920438 25.5023472,6.7414844 24.5,5.34000435 Z" id="Shape"></path>
                    </g>
                </g>
            </g>
        </g>
    </g>
</svg>