<?xml version="1.0" encoding="UTF-8"?>
<svg width="30px" height="28px" viewBox="0 0 30 28" version="1.1" xmlns="http://www.w3.org/2000/svg" xmlns:xlink="http://www.w3.org/1999/xlink">
    <!-- Generator: Sketch 58 (84663) - https://sketch.com -->
    <title>Rain-2</title>
    <desc>Created with Sketch.</desc>
    <g id="Page-1" stroke="none" stroke-width="1" fill="none" fill-rule="evenodd">
        <g id="Weather-Glyph" transform="translate(-245.000000, -257.000000)" fill="#404852" fill-rule="nonzero">
            <g id="Rain-2" transform="translate(244.000000, 255.000000)">
                <g id="Group-2" transform="translate(1.000000, 2.000000)">
                    <path d="M14.3162278,20.0513167 C14.8027466,20.2134896 15.0816512,20.7133799 14.9791796,21.2034638 L14.9486833,21.3162278 L12.9486833,27.3162278 C12.7740355,27.8401711 12.2077156,28.1233311 11.6837722,27.9486833 C11.1972534,27.7865104 10.9183488,27.2866201 11.0208204,26.7965362 L11.0513167,26.6837722 L13.0513167,20.6837722 C13.2259645,20.1598289 13.7922844,19.8766689 14.3162278,20.0513167 Z M11.3162278,17.0513167 C11.8027466,17.2134896 12.0816512,17.7133799 11.9791796,18.2034638 L11.9486833,18.3162278 L9.9486833,24.3162278 C9.77403553,24.8401711 9.20771555,25.1233311 8.68377223,24.9486833 C8.19725344,24.7865104 7.91834884,24.2866201 8.02082035,23.7965362 L8.0513167,23.6837722 L10.0513167,17.6837722 C10.2259645,17.1598289 10.7922844,16.8766689 11.3162278,17.0513167 Z M19.3162278,17.0513167 C19.8027466,17.2134896 20.0816512,17.7133799 19.9791796,18.2034638 L19.9486833,18.3162278 L17.9486833,24.3162278 C17.7740355,24.8401711 17.2077156,25.1233311 16.6837722,24.9486833 C16.1972534,24.7865104 15.9183488,24.2866201 16.0208204,23.7965362 L16.0513167,23.6837722 L18.0513167,17.6837722 C18.2259645,17.1598289 18.7922844,16.8766689 19.3162278,17.0513167 Z M22.1341152,1.40662264 C22.0452549,1.76091946 22,2.12663227 22,2.5 C22,4.98528137 24.0147186,7 26.5,7 C26.8730866,7 27.2393973,6.95481095 27.5937559,6.86639545 C28.3257418,6.68375872 28.9886375,7.34652385 28.806145,8.07854569 C28.4648085,9.44772942 27.6860066,10.6560636 26.612587,11.5338866 C28.102171,12.8352196 29.0432202,14.7500727 29.0432202,16.8847196 C29.0432202,20.8100715 25.8610938,23.9921979 21.935742,23.9921979 L19.111,23.9914413 L20.8973666,18.6324555 L20.9445008,18.4645291 C21.1649088,17.4186156 20.5981666,16.4245371 19.6324555,16.1026334 C18.5845689,15.7533379 17.4519289,16.3196578 17.1026334,17.3675445 L15.9821042,20.7297179 C15.881889,19.9989062 15.3795695,19.3516714 14.6324555,19.1026334 C13.8853641,18.8536029 13.0951927,19.0699785 12.5765328,19.5944644 L12.8973666,18.6324555 L12.9445008,18.4645291 C13.1649088,17.4186156 12.5981666,16.4245371 11.6324555,16.1026334 C10.5845689,15.7533379 9.45192895,16.3196578 9.1026334,17.3675445 L7.1026334,23.3675445 L7.05549921,23.5354709 C7.023061,23.6894017 7.00767248,23.8422096 7.00809623,23.9919174 L5.88598262,23.9921979 C2.63524418,23.9921979 -6.21724894e-14,21.3569537 -6.21724894e-14,18.1062153 C-6.21724894e-14,16.3499312 0.775981663,14.7248771 2.07238902,13.6223323 C1.89151944,12.8907441 1.79897669,12.1349973 1.79897669,11.3674381 C1.79897669,6.19394488 5.99292157,2 11.1664148,2 C13.1923816,2 15.074403,2.64528397 16.6120612,3.74511584 C17.4315592,1.99504285 19.0071642,0.67088087 20.9220705,0.193095365 C21.6546625,0.0103073865 22.3177986,0.674254596 22.1341152,1.40662264 Z M20.0048862,2.75437701 C19.1512423,3.32438118 18.5033929,4.17841183 18.1965882,5.17951844 C19.3191402,6.45000782 20.1007514,8.02862045 20.3994415,9.77724132 L21.935742,9.77724132 C22.9508458,9.77724132 23.9162464,9.99004599 24.7897654,10.373477 C25.3758151,10.0276881 25.8724229,9.55402669 26.2454094,8.9951056 C22.8579509,8.86463814 20.1352446,6.14186344 20.0048862,2.75437701 Z" id="Shape"></path>
                </g>
            </g>
        </g>
    </g>
</svg>