<?xml version="1.0" encoding="UTF-8"?>
<svg width="30px" height="26px" viewBox="0 0 30 26" version="1.1" xmlns="http://www.w3.org/2000/svg" xmlns:xlink="http://www.w3.org/1999/xlink">
    <!-- Generator: Sketch 58 (84663) - https://sketch.com -->
    <title>Rain-3</title>
    <desc>Created with Sketch.</desc>
    <g id="Page-1" stroke="none" stroke-width="1" fill="none" fill-rule="evenodd">
        <g id="Weather-Glyph" transform="translate(-317.000000, -259.000000)" fill="#404852" fill-rule="nonzero">
            <g id="Rain-3" transform="translate(316.000000, 255.000000)">
                <g id="Group-2" transform="translate(1.000000, 4.000000)">
                    <path d="M14.3162278,18.0513167 C14.8027466,18.2134896 15.0816512,18.7133799 14.9791796,19.2034638 L14.9486833,19.3162278 L12.9486833,25.3162278 C12.7740355,25.8401711 12.2077156,26.1233311 11.6837722,25.9486833 C11.1972534,25.7865104 10.9183488,25.2866201 11.0208204,24.7965362 L11.0513167,24.6837722 L13.0513167,18.6837722 C13.2259645,18.1598289 13.7922844,17.8766689 14.3162278,18.0513167 Z M11.3162278,15.0513167 C11.8027466,15.2134896 12.0816512,15.7133799 11.9791796,16.2034638 L11.9486833,16.3162278 L9.9486833,22.3162278 C9.77403553,22.8401711 9.20771555,23.1233311 8.68377223,22.9486833 C8.19725344,22.7865104 7.91834884,22.2866201 8.02082035,21.7965362 L8.0513167,21.6837722 L10.0513167,15.6837722 C10.2259645,15.1598289 10.7922844,14.8766689 11.3162278,15.0513167 Z M19.3162278,15.0513167 C19.8027466,15.2134896 20.0816512,15.7133799 19.9791796,16.2034638 L19.9486833,16.3162278 L17.9486833,22.3162278 C17.7740355,22.8401711 17.2077156,23.1233311 16.6837722,22.9486833 C16.1972534,22.7865104 15.9183488,22.2866201 16.0208204,21.7965362 L16.0513167,21.6837722 L18.0513167,15.6837722 C18.2259645,15.1598289 18.7922844,14.8766689 19.3162278,15.0513167 Z M11.1664148,-8.8817842e-15 C15.6846078,-8.8817842e-15 19.486884,3.20934044 20.350272,7.51243774 L20.3994415,7.77724132 L21.935742,7.77724132 C25.8610938,7.77724132 29.0432202,10.9593677 29.0432202,14.8847196 C29.0432202,18.8100715 25.8610938,21.9921979 21.935742,21.9921979 L19.11,21.992 L20.8973666,16.6324555 L20.9445008,16.4645291 C21.141708,15.5287117 20.7087589,14.6343911 19.923702,14.2259074 L19.7815641,14.1589558 L19.6324555,14.1026334 C18.6344683,13.769971 17.5596072,14.2677988 17.1577679,15.2211692 L17.1026334,15.3675445 L15.9821042,18.7297179 C15.881889,17.9989062 15.3795695,17.3516714 14.6324555,17.1026334 C13.9387278,16.8713908 13.2078546,17.0414422 12.6917154,17.4868479 L12.5765328,17.5944644 L12.8973666,16.6324555 L12.9445008,16.4645291 C13.1649088,15.4186156 12.5981666,14.4245371 11.6324555,14.1026334 C10.6344683,13.769971 9.55960724,14.2677988 9.1577679,15.2211692 L9.1026334,15.3675445 L7.1026334,21.3675445 L7.05549921,21.5354709 C7.02300362,21.6896739 7.0076181,21.8427502 7.00809863,21.9927117 L5.88598262,21.9921979 C2.63524418,21.9921979 -4.08562073e-14,19.3569537 -4.08562073e-14,16.1062153 C-4.08562073e-14,14.3499312 0.775981663,12.7248771 2.07238902,11.6223323 C1.89151944,10.8907441 1.79897669,10.1349973 1.79897669,9.36743807 C1.79897669,4.19394488 5.99292157,-8.8817842e-15 11.1664148,-8.8817842e-15 Z" id="Shape"></path>
                </g>
            </g>
        </g>
    </g>
</svg>