<?xml version="1.0" encoding="UTF-8"?>
<svg width="22px" height="28px" viewBox="0 0 22 28" version="1.1" xmlns="http://www.w3.org/2000/svg" xmlns:xlink="http://www.w3.org/1999/xlink">
    <!-- Generator: Sketch 58 (84663) - https://sketch.com -->
    <title>Rain Drops-1</title>
    <desc>Created with Sketch.</desc>
    <g id="Page-1" stroke="none" stroke-width="1" fill="none" fill-rule="evenodd">
        <g id="Weather-Glyph" transform="translate(-321.000000, -402.000000)" fill="#404852" fill-rule="nonzero">
            <g id="Rain-Drops-1" transform="translate(316.000000, 400.000000)">
                <path d="M15.7062787,18.3917183 C16.1065454,17.8694272 16.8934546,17.8694272 17.2937213,18.3917183 C19.7600152,21.609882 21,23.9127109 21,25.5 C21,27.9852814 18.9852814,30 16.5,30 C14.0147186,30 12,27.9852814 12,25.5 C12,23.9127109 13.2399848,21.609882 15.7062787,18.3917183 Z M24.3252897,8.43529046 C26.1035089,11.0340529 27,12.8987545 27,14.2 C27,16.2750186 25.459838,18 23.5,18 C21.540162,18 20,16.2750186 20,14.2 C20,12.8987545 20.8964911,11.0340529 22.6747103,8.43529046 C23.0718438,7.85490318 23.9281562,7.85490318 24.3252897,8.43529046 Z M10.2937213,2.39171834 C12.7600152,5.60988201 14,7.9127109 14,9.5 C14,11.9852814 11.9852814,14 9.5,14 C7.01471863,14 5,11.9852814 5,9.5 C5,7.9127109 6.23998479,5.60988201 8.70627875,2.39171834 C9.10654535,1.86942722 9.89345465,1.86942722 10.2937213,2.39171834 Z" id="Shape"></path>
            </g>
        </g>
    </g>
</svg>