<?xml version="1.0" encoding="UTF-8"?>
<svg width="30px" height="25px" viewBox="0 0 30 25" version="1.1" xmlns="http://www.w3.org/2000/svg" xmlns:xlink="http://www.w3.org/1999/xlink">
    <!-- Generator: Sketch 58 (84663) - https://sketch.com -->
    <title>Rain-4</title>
    <desc>Created with Sketch.</desc>
    <g id="Page-1" stroke="none" stroke-width="1" fill="none" fill-rule="evenodd">
        <g id="Weather-Glyph" transform="translate(-389.000000, -257.000000)" fill="#404852" fill-rule="nonzero">
            <g id="Rain-4" transform="translate(388.000000, 255.000000)">
                <g id="Group-2" transform="translate(1.000000, 2.000000)">
                    <path d="M10.2596848,20.2209456 C10.7462036,20.3831185 11.0251082,20.8830088 10.9226367,21.3730927 L10.8921403,21.4858567 L9.9486833,24.3162278 C9.77403553,24.8401711 9.20771555,25.1233311 8.68377223,24.9486833 C8.19725344,24.7865104 7.91834884,24.2866201 8.02082035,23.7965362 L8.0513167,23.6837722 L8.99477373,20.8534011 C9.16942151,20.3294578 9.73574148,20.0462978 10.2596848,20.2209456 Z M14.2596848,20.2209456 C14.7462036,20.3831185 15.0251082,20.8830088 14.9226367,21.3730927 L14.8921403,21.4858567 L13.9486833,24.3162278 C13.7740355,24.8401711 13.2077156,25.1233311 12.6837722,24.9486833 C12.1972534,24.7865104 11.9183488,24.2866201 12.0208204,23.7965362 L12.0513167,23.6837722 L12.9947737,20.8534011 C13.1694215,20.3294578 13.7357415,20.0462978 14.2596848,20.2209456 Z M18.2596848,20.2209456 C18.7462036,20.3831185 19.0251082,20.8830088 18.9226367,21.3730927 L18.8921403,21.4858567 L17.9486833,24.3162278 C17.7740355,24.8401711 17.2077156,25.1233311 16.6837722,24.9486833 C16.1972534,24.7865104 15.9183488,24.2866201 16.0208204,23.7965362 L16.0513167,23.6837722 L16.9947737,20.8534011 C17.1694215,20.3294578 17.7357415,20.0462978 18.2596848,20.2209456 Z M11.1664148,2 C13.6685596,2 15.9511421,2.9842629 17.6366101,4.59347549 C18.3563823,4.20621408 19.1640713,4 20,4 C22.7614237,4 25,6.23857625 25,9 C25,9.47223773 24.9342232,9.93599946 24.8066879,10.3806607 C27.3015328,11.4834004 29.0432202,13.9806636 29.0432202,16.8847196 C29.0432202,20.8100715 25.8610938,23.9921979 21.935742,23.9921979 L19.11,23.992 L19.8408236,21.8020844 L19.8879578,21.634158 C20.1083658,20.5882445 19.5416236,19.594166 18.5759126,19.2722623 C17.5779253,18.9395999 16.5030643,19.4374277 16.1012249,20.3907981 L16.0460904,20.5371734 L15.9190622,20.9219662 C15.8371264,20.269377 15.4513453,19.7021499 14.8734364,19.3988168 L14.7250211,19.3285847 L14.5759126,19.2722623 C13.5779253,18.9395999 12.5030643,19.4374277 12.1012249,20.3907981 L12.0460904,20.5371734 L11.9190622,20.9219662 C11.8371264,20.269377 11.4513453,19.7021499 10.8734364,19.3988168 L10.7250211,19.3285847 L10.5759126,19.2722623 C9.57792529,18.9395999 8.50306427,19.4374277 8.10122494,20.3907981 L8.04609044,20.5371734 L7.1026334,23.3675445 L7.05549921,23.5354709 C7.02300362,23.6896739 7.0076181,23.8427502 7.00809863,23.9927117 L5.88598262,23.9921979 C2.63524418,23.9921979 -6.21724894e-14,21.3569537 -6.21724894e-14,18.1062153 C-6.21724894e-14,16.3499312 0.775981663,14.7248771 2.07238902,13.6223323 C1.89151944,12.8907441 1.79897669,12.1349973 1.79897669,11.3674381 C1.79897669,6.19394488 5.99292157,2 11.1664148,2 Z M20,6 C19.6424357,6 19.2950195,6.06225907 18.9691539,6.18147228 C19.6301487,7.173745 20.1069343,8.29965059 20.350272,9.51243774 L20.3994415,9.77724132 L21.935742,9.77724132 C22.2561789,9.77724132 22.571663,9.79844666 22.8808676,9.8395306 L22.9314542,9.64162412 C22.9767934,9.43314894 23,9.21845328 23,9 C23,7.34314575 21.6568542,6 20,6 Z M27.9834427,6.00013708 C28.5356517,5.99099271 28.9907185,6.43123361 28.9998629,6.98344265 C29.0090073,7.53565169 28.5687664,7.99071855 28.0165573,7.99986292 L27.3805995,8.01039414 C26.8283904,8.01953851 26.3733236,7.57929761 26.3641792,7.02708857 C26.3550348,6.47487953 26.7952757,6.01981267 27.3474848,6.0106683 L27.9834427,6.00013708 Z M27.8538823,1.5607964 C28.2143662,1.92128036 28.2420958,2.48851142 27.9370709,2.88080263 L27.8538823,2.97500996 L26.5603313,4.26856096 C26.169807,4.65908525 25.536642,4.65908525 25.1461177,4.26856096 C24.7856338,3.908077 24.7579042,3.34084594 25.0629291,2.94855473 L25.1461177,2.85434739 L26.4396687,1.5607964 C26.830193,1.17027211 27.463358,1.17027211 27.8538823,1.5607964 Z M23,-1.59872116e-14 C23.5522847,-1.59872116e-14 24,0.44771525 24,1 L24,2 C24,2.55228475 23.5522847,3 23,3 C22.4477153,3 22,2.55228475 22,2 L22,1 C22,0.44771525 22.4477153,-1.59872116e-14 23,-1.59872116e-14 Z" id="Shape"></path>
                </g>
            </g>
        </g>
    </g>
</svg>