<?xml version="1.0" encoding="UTF-8"?>
<svg width="30px" height="25px" viewBox="0 0 30 25" version="1.1" xmlns="http://www.w3.org/2000/svg" xmlns:xlink="http://www.w3.org/1999/xlink">
    <!-- Generator: Sketch 58 (84663) - https://sketch.com -->
    <title>Rain</title>
    <desc>Created with Sketch.</desc>
    <g id="Page-1" stroke="none" stroke-width="1" fill="none" fill-rule="evenodd">
        <g id="Weather-Glyph" transform="translate(-677.000000, -187.000000)">
            <g id="Rain" transform="translate(676.000000, 183.000000)">
                <rect id="Rectangle" x="0" y="0" width="32" height="32"></rect>
                <g id="Group-2" transform="translate(1.000000, 4.000000)" fill="#404852" fill-rule="nonzero">
                    <path d="M12.9088364,14.5870873 C13.3062133,14.1442577 14.0000014,14.1442577 14.3973783,14.5870873 C16.5059557,16.9368479 17.5786716,18.7247078 17.5786716,20.1309056 C17.5786716,22.2989349 15.8211366,24.0564699 13.6531073,24.0564699 C11.485078,24.0564699 9.72754301,22.2989349 9.72754301,20.1309056 C9.72754301,18.7247078 10.800259,16.9368479 12.9088364,14.5870873 Z M11.1664148,-2.66453526e-14 C15.7768158,-2.66453526e-14 19.6417808,3.3416706 20.3994415,7.77724132 L21.935742,7.77724132 C25.8610938,7.77724132 29.0432202,10.9593677 29.0432202,14.8847196 C29.0432202,18.8100715 25.8610938,21.9921979 21.935742,21.9921979 L18.2145461,21.9929613 C18.4492901,21.4185075 18.5786716,20.7898159 18.5786716,20.1309056 C18.5786716,18.4342295 17.4542713,16.4963537 15.1416492,13.9192095 C14.3468955,13.0335503 12.9593192,13.0335503 12.1645654,13.9192095 C9.85194336,16.4963537 8.72754301,18.4342295 8.72754301,20.1309056 C8.72754301,20.7898159 8.85692455,21.4185075 9.09166856,21.9929613 L5.88598262,21.9921979 C2.63524418,21.9921979 -3.55271368e-14,19.3569537 -3.55271368e-14,16.1062153 C-3.55271368e-14,14.3499312 0.775981663,12.7248771 2.07238902,11.6223323 C1.89151944,10.8907441 1.79897669,10.1349973 1.79897669,9.36743807 C1.79897669,4.19394488 5.99292157,-2.66453526e-14 11.1664148,-2.66453526e-14 Z" id="Shape"></path>
                </g>
            </g>
        </g>
    </g>
</svg>