<?xml version="1.0" encoding="UTF-8"?>
<svg width="30px" height="25px" viewBox="0 0 30 25" version="1.1" xmlns="http://www.w3.org/2000/svg" xmlns:xlink="http://www.w3.org/1999/xlink">
    <!-- Generator: Sketch 58 (84663) - https://sketch.com -->
    <title>Snow</title>
    <desc>Created with Sketch.</desc>
    <g id="Page-1" stroke="none" stroke-width="1" fill="none" fill-rule="evenodd">
        <g id="Weather-Glyph" transform="translate(-461.000000, -259.000000)" fill="#404852" fill-rule="nonzero">
            <g id="Snow" transform="translate(460.000000, 255.000000)">
                <g id="Group-2" transform="translate(1.000000, 4.000000)">
                    <path d="M20,23 C20.5522847,23 21,23.4477153 21,24 C21,24.5522847 20.5522847,25 20,25 C19.4477153,25 19,24.5522847 19,24 C19,23.4477153 19.4477153,23 20,23 Z M15,23 C15.5522847,23 16,23.4477153 16,24 C16,24.5522847 15.5522847,25 15,25 C14.4477153,25 14,24.5522847 14,24 C14,23.4477153 14.4477153,23 15,23 Z M11,23 C11.5522847,23 12,23.4477153 12,24 C12,24.5522847 11.5522847,25 11,25 C10.4477153,25 10,24.5522847 10,24 C10,23.4477153 10.4477153,23 11,23 Z M11.1664148,-8.8817842e-15 C15.6846078,-8.8817842e-15 19.486884,3.20934044 20.350272,7.51243774 L20.3994415,7.77724132 L21.935742,7.77724132 C25.8610938,7.77724132 29.0432202,10.9593677 29.0432202,14.8847196 C29.0432202,18.8100715 25.8610938,21.9921979 21.9440796,21.9921631 L20.9994838,22.0000725 L18.7323937,22.0000725 C18.9025897,21.7058827 19,21.3643171 19,21 C19,19.8954305 18.1045695,19 17,19 C16.9047429,19 16.8110412,19.0066595 16.72065,19.0201025 C16.8981013,18.721432 17,18.3726159 17,18 C17,16.8954305 16.1045695,16 15,16 C13.9456382,16 13.0818349,16.8158778 13.0054857,17.8507377 L13,18 L12.9945143,17.8507377 C12.9181651,16.8158778 12.0543618,16 11,16 C9.8954305,16 9,16.8954305 9,18 C9,18.3730308 9.10212573,18.7222089 9.28120429,19.0196141 C9.18932621,19.0066856 9.09544386,19 9,19 C7.8954305,19 7,19.8954305 7,21 C7,21.3618274 7.09608349,21.7012133 7.26412731,21.9940346 L5.88546641,21.9921977 L5.66531884,21.9881381 C2.51682154,21.8720961 -4.08562073e-14,19.2830733 -4.08562073e-14,16.1062153 C-4.08562073e-14,14.3499312 0.775981663,12.7248771 2.07238902,11.6223323 C1.89151944,10.8907441 1.79897669,10.1349973 1.79897669,9.36743807 C1.79897669,4.19394488 5.99292157,-8.8817842e-15 11.1664148,-8.8817842e-15 Z M9,20 C9.55228475,20 10,20.4477153 10,21 C10,21.5522847 9.55228475,22 9,22 C8.44771525,22 8,21.5522847 8,21 C8,20.4477153 8.44771525,20 9,20 Z M13,20 C13.5522847,20 14,20.4477153 14,21 C14,21.5522847 13.5522847,22 13,22 C12.4477153,22 12,21.5522847 12,21 C12,20.4477153 12.4477153,20 13,20 Z M17,20 C17.5522847,20 18,20.4477153 18,21 C18,21.5522847 17.5522847,22 17,22 C16.4477153,22 16,21.5522847 16,21 C16,20.4477153 16.4477153,20 17,20 Z M20,16 C18.8954305,16 18,16.8954305 18,18 C18,19.1045695 18.8954305,20 20,20 C21.1045695,20 22,19.1045695 22,18 C22,16.8954305 21.1045695,16 20,16 Z M20,17 C20.5522847,17 21,17.4477153 21,18 C21,18.5522847 20.5522847,19 20,19 C19.4477153,19 19,18.5522847 19,18 C19,17.4477153 19.4477153,17 20,17 Z M15,17 C15.5522847,17 16,17.4477153 16,18 C16,18.5522847 15.5522847,19 15,19 C14.4477153,19 14,18.5522847 14,18 C14,17.4477153 14.4477153,17 15,17 Z M11,17 C11.5522847,17 12,17.4477153 12,18 C12,18.5522847 11.5522847,19 11,19 C10.4477153,19 10,18.5522847 10,18 C10,17.4477153 10.4477153,17 11,17 Z" id="Shape"></path>
                </g>
            </g>
        </g>
    </g>
</svg>