<?xml version="1.0" encoding="UTF-8"?>
<svg width="27px" height="27px" viewBox="0 0 27 27" version="1.1" xmlns="http://www.w3.org/2000/svg" xmlns:xlink="http://www.w3.org/1999/xlink">
    <!-- Generator: Sketch 58 (84663) - https://sketch.com -->
    <title>Snow-1</title>
    <desc>Created with Sketch.</desc>
    <g id="Page-1" stroke="none" stroke-width="1" fill="none" fill-rule="evenodd">
        <g id="Weather-Glyph" transform="translate(-607.000000, -330.000000)">
            <g id="Snow-1" transform="translate(604.000000, 327.000000)">
                <rect id="Rectangle" x="0" y="0" width="32" height="32"></rect>
                <g id="Group-9" transform="translate(2.000000, 3.000000)">
                    <g id="Group-8" transform="translate(0.685940, 0.000000)" fill="#404852" fill-rule="nonzero">
                        <path d="M13.421485,0 C13.9343208,0 14.3569922,0.38604019 14.4147573,0.883378875 L14.421485,1 L14.42106,2.217 L15.1358632,1.50363572 C15.4963472,1.14315176 16.0635782,1.11542222 16.4558694,1.42044711 L16.5500768,1.50363572 C16.9105607,1.86411968 16.9382903,2.43135073 16.6332654,2.82364194 L16.5500768,2.91784928 L14.42106,5.046 L14.42106,10.693 L21.2756205,3.83907589 C21.6361045,3.47859193 22.2033355,3.4508624 22.5956267,3.75588729 L22.6898341,3.83907589 C23.050318,4.19955986 23.0780476,4.76679091 22.7730227,5.15908212 L22.6898341,5.25328946 L21.82806,6.114 L22.8388515,6.11455537 C23.3516874,6.11455537 23.7743587,6.50059556 23.8321238,6.99793424 L23.8388515,7.11455537 C23.8388515,7.62739121 23.4528113,8.05006253 22.9554727,8.10782764 L22.8388515,8.11455537 L19.82806,8.114 L15.83506,12.107 L25.52891,12.107425 C26.0417458,12.107425 26.4644171,12.4934652 26.5221823,12.9908039 L26.52891,13.107425 C26.52891,13.6202608 26.1428698,14.0429321 25.6455311,14.1006973 L25.52891,14.107425 L24.31106,14.107 L25.0252743,14.8218032 C25.3857582,15.1822872 25.4134878,15.7495182 25.1084629,16.1418094 L25.0252743,16.2360168 C24.6647903,16.5965007 24.0975592,16.6242303 23.705268,16.3192054 L23.6110607,16.2360168 L21.48206,14.107 L15.83506,14.107 L22.6898341,20.9615605 C23.050318,21.3220445 23.0780476,21.8892755 22.7730227,22.2815667 L22.6898341,22.3757741 C22.3293501,22.736258 21.7621191,22.7639876 21.3698279,22.4589627 L21.2756205,22.3757741 L20.41406,21.514 L20.4143546,22.5247915 C20.4143546,23.0376274 20.0283144,23.4602987 19.5309757,23.5180638 L19.4143546,23.5247915 C18.9015188,23.5247915 18.4788475,23.1387513 18.4210823,22.6414127 L18.4143546,22.5247915 L18.41406,19.514 L14.42106,15.521 L14.421485,25.21485 C14.421485,25.7276858 14.0354448,26.1503571 13.5381061,26.2081222 L13.421485,26.21485 C12.9086492,26.21485 12.4859778,25.8288098 12.4282127,25.3314711 L12.421485,25.21485 L12.42106,23.997 L11.7071068,24.7112143 C11.3466228,25.0716982 10.7793918,25.0994278 10.3871006,24.7944029 L10.2928932,24.7112143 C9.93240926,24.3507303 9.90467972,23.7834992 10.2097046,23.391208 L10.2928932,23.2970007 L12.42106,21.168 L12.42106,15.521 L5.56734947,22.3757741 C5.17682518,22.7662984 4.5436602,22.7662984 4.15313591,22.3757741 C3.79265194,22.0152901 3.76492241,21.4480591 4.0699473,21.0557679 L4.15313591,20.9615605 L5.01406001,20.1 L4.00411846,20.1002946 C3.49128262,20.1002946 3.0686113,19.7142544 3.01084619,19.2169157 L3.00411846,19.1002946 C3.00411846,18.5874588 3.39015865,18.1647874 3.88749733,18.1070223 L4.00411846,18.1002946 L7.01406001,18.1 L11.00706,14.107 L1.31406001,14.107425 C0.801224173,14.107425 0.378552851,13.7213848 0.320787743,13.2240461 L0.314060012,13.107425 C0.314060012,12.5945891 0.700100202,12.1719178 1.19743889,12.1141527 L1.31406001,12.107425 L2.53106001,12.107 L1.81769573,11.3930468 C1.45721177,11.0325628 1.42948223,10.4653318 1.73450712,10.0730405 L1.81769573,9.97883321 C2.17817969,9.61834925 2.74541075,9.59061971 3.13770195,9.8956446 L3.23190929,9.97883321 L5.36006001,12.107 L11.00706,12.107 L4.15313591,5.25328946 C3.79265194,4.89280549 3.76492241,4.32557444 4.0699473,3.93328323 L4.15313591,3.83907589 C4.51361987,3.47859193 5.08085092,3.4508624 5.47314213,3.75588729 L5.56734947,3.83907589 L6.42806001,4.7 L6.42861538,3.69005844 C6.42861538,3.17722261 6.81465557,2.75455128 7.31199425,2.69678618 L7.42861538,2.69005844 C7.94145122,2.69005844 8.36412254,3.07609863 8.42188765,3.57343732 L8.42861538,3.69005844 L8.42806001,6.7 L12.42106,10.693 L12.421485,1 C12.421485,0.44771525 12.8692002,0 13.421485,0 Z" id="Path"></path>
                    </g>
                    <g id="Group-8-Copy" transform="translate(14.500000, 13.028910) rotate(-90.000000) translate(-14.500000, -13.028910) translate(12.000000, 0.528910)"></g>
                    <g id="Group-8-Copy-2" transform="translate(13.774314, 12.885351) rotate(-225.000000) translate(-13.774314, -12.885351) translate(11.274314, 0.385351)"></g>
                    <g id="Group-8-Copy-3" transform="translate(14.329499, 12.774314) rotate(-135.000000) translate(-14.329499, -12.774314) translate(11.829499, 0.274314)"></g>
                </g>
            </g>
        </g>
    </g>
</svg>