<?xml version="1.0" encoding="UTF-8"?>
<svg width="28px" height="28px" viewBox="0 0 28 28" version="1.1" xmlns="http://www.w3.org/2000/svg" xmlns:xlink="http://www.w3.org/1999/xlink">
    <!-- Generator: Sketch 58 (84663) - https://sketch.com -->
    <title>Snow-2</title>
    <desc>Created with Sketch.</desc>
    <g id="Page-1" stroke="none" stroke-width="1" fill="none" fill-rule="evenodd">
        <g id="Weather-Glyph" transform="translate(-678.000000, -329.000000)">
            <g id="Snow-2" transform="translate(676.000000, 327.000000)">
                <g id="Group-9" transform="translate(2.000000, 2.000000)">
                    <g id="Group-8" transform="translate(14.000000, 14.000000) rotate(90.000000) translate(-14.000000, -14.000000) " fill-rule="nonzero">
                        <path d="M14,0 C14.5128358,0 14.9355072,0.38604019 14.9932723,0.883378875 L15,1 L15,4.584 L15.2928932,4.29289322 C15.6533772,3.93240926 16.2206082,3.90467972 16.6128994,4.20970461 L16.7071068,4.29289322 C17.0675907,4.65337718 17.0953203,5.22060824 16.7902954,5.61289944 L16.7071068,5.70710678 L15,7.414 L15,11.585 L17.363,9.222 L17.363961,6.80761184 C17.363961,6.25532709 17.8116763,5.80761184 18.363961,5.80761184 C18.9162458,5.80761184 19.363961,6.25532709 19.363961,6.80761184 L19.363,7.222 L22.4852814,4.10050506 C22.8457653,3.7400211 23.4129964,3.71229157 23.8052876,4.01731646 L23.8994949,4.10050506 C24.2599789,4.46098903 24.2877084,5.02822008 23.9826835,5.42051129 L23.8994949,5.51471863 L20.777,8.636 L21.1923882,8.63603897 C21.7446729,8.63603897 22.1923882,9.08375422 22.1923882,9.63603897 C22.1923882,10.1883237 21.7446729,10.636039 21.1923882,10.636039 L18.777,10.636 L16.413,13 L21.584,13 L23.2928932,11.2928932 C23.6533772,10.9324093 24.2206082,10.9046797 24.6128994,11.2097046 L24.7071068,11.2928932 C25.0675907,11.6533772 25.0953203,12.2206082 24.7902954,12.6128994 L24.7071068,12.7071068 L24.414,13 L27,13 C27.5128358,13 27.9355072,13.3860402 27.9932723,13.8833789 L28,14 C28,14.5128358 27.6139598,14.9355072 27.1166211,14.9932723 L27,15 L24.415,15 L24.7071068,15.2928932 C25.0675907,15.6533772 25.0953203,16.2206082 24.7902954,16.6128994 L24.7071068,16.7071068 C24.3466228,17.0675907 23.7793918,17.0953203 23.3871006,16.7902954 L23.2928932,16.7071068 L21.585,15 L16.414,15 L18.777,17.363 L21.1923882,17.363961 C21.705224,17.363961 22.1278953,17.7500012 22.1856604,18.2473399 L22.1923882,18.363961 C22.1923882,18.8767969 21.806348,19.2994682 21.3090093,19.3572333 L21.1923882,19.363961 L20.777,19.363 L23.8994949,22.4852814 C24.2599789,22.8457653 24.2877084,23.4129964 23.9826835,23.8052876 L23.8994949,23.8994949 C23.539011,24.2599789 22.9717799,24.2877084 22.5794887,23.9826835 L22.4852814,23.8994949 L19.363,20.777 L19.363961,21.1923882 C19.363961,21.705224 18.9779208,22.1278953 18.4805822,22.1856604 L18.363961,22.1923882 C17.8511252,22.1923882 17.4284539,21.806348 17.3706888,21.3090093 L17.363961,21.1923882 L17.363,18.777 L15,16.414 L15,27 C15,27.5128358 14.6139598,27.9355072 14.1166211,27.9932723 L14,28 C13.4871642,28 13.0644928,27.6139598 13.0067277,27.1166211 L13,27 L13,16.413 L10.636,18.777 L10.636039,21.1923882 C10.636039,21.705224 10.2499988,22.1278953 9.75266009,22.1856604 L9.63603897,22.1923882 C9.12320313,22.1923882 8.70053181,21.806348 8.6427667,21.3090093 L8.63603897,21.1923882 L8.636,20.777 L5.51471863,23.8994949 C5.15423466,24.2599789 4.58700361,24.2877084 4.1947124,23.9826835 L4.10050506,23.8994949 C3.7400211,23.539011 3.71229157,22.9717799 4.01731646,22.5794887 L4.10050506,22.4852814 L7.222,19.363 L6.80761184,19.363961 C6.29477601,19.363961 5.87210468,18.9779208 5.81433958,18.4805822 L5.80761184,18.363961 C5.80761184,17.8511252 6.19365203,17.4284539 6.69099072,17.3706888 L6.80761184,17.363961 L9.222,17.363 L11.586,14.999 L6.415,14.999 L4.70710678,16.7071068 C4.31658249,17.0976311 3.68341751,17.0976311 3.29289322,16.7071068 C2.90236893,16.3165825 2.90236893,15.6834175 3.29289322,15.2928932 L3.585,14.999 L1,15 C0.487164161,15 0.0644928393,14.6139598 0.00672773133,14.1166211 L0,14 C0,13.4871642 0.38604019,13.0644928 0.883378875,13.0067277 L1,13 L3.584,12.999 L3.29289322,12.7071068 C2.90236893,12.3165825 2.90236893,11.6834175 3.29289322,11.2928932 C3.68341751,10.9023689 4.31658249,10.9023689 4.70710678,11.2928932 L6.414,12.999 L11.585,12.999 L9.222,10.636 L6.80761184,10.636039 C6.25532709,10.636039 5.80761184,10.1883237 5.80761184,9.63603897 C5.80761184,9.08375422 6.25532709,8.63603897 6.80761184,8.63603897 L7.222,8.636 L4.10050506,5.51471863 C3.7400211,5.15423466 3.71229157,4.58700361 4.01731646,4.1947124 L4.10050506,4.10050506 C4.46098903,3.7400211 5.02822008,3.71229157 5.42051129,4.01731646 L5.51471863,4.10050506 L8.636,7.222 L8.63603897,6.80761184 C8.63603897,6.25532709 9.08375422,5.80761184 9.63603897,5.80761184 C10.1883237,5.80761184 10.636039,6.25532709 10.636039,6.80761184 L10.636,9.222 L13,11.586 L13,7.415 L11.2928932,5.70710678 C10.9324093,5.34662282 10.9046797,4.77939176 11.2097046,4.38710056 L11.2928932,4.29289322 C11.6533772,3.93240926 12.2206082,3.90467972 12.6128994,4.20970461 L12.7071068,4.29289322 L13,4.585 L13,1 C13,0.526613072 13.3289337,0.130052714 13.7707092,0.0264107128 L13.8833789,0.00672773133 L14,0 Z" id="Path" fill="#404852"></path>
                        <polyline id="Path-9" stroke="#404852" stroke-width="2" stroke-linecap="round" stroke-linejoin="round" transform="translate(14.000000, 22.000000) scale(1, -1) translate(-14.000000, -22.000000) " points="12 21 14 23 16 21"></polyline>
                    </g>
                    <g id="Group-8" transform="translate(14.000000, 14.000000) rotate(-180.000000) translate(-14.000000, -14.000000) translate(12.000000, 1.000000)"></g>
                    <g id="Group-8" transform="translate(14.000000, 14.000000) rotate(-135.000000) translate(-14.000000, -14.000000) translate(12.000000, 1.000000)"></g>
                    <g id="Group-8" transform="translate(14.000000, 14.000000) rotate(-45.000000) translate(-14.000000, -14.000000) translate(12.000000, 1.000000)"></g>
                </g>
            </g>
        </g>
    </g>
</svg>