<?xml version="1.0" encoding="UTF-8"?>
<svg width="19px" height="17px" viewBox="0 0 19 17" version="1.1" xmlns="http://www.w3.org/2000/svg" xmlns:xlink="http://www.w3.org/1999/xlink">
    <!-- Generator: Sketch 58 (84663) - https://sketch.com -->
    <title>Snow-3</title>
    <desc>Created with Sketch.</desc>
    <g id="Page-1" stroke="none" stroke-width="1" fill="none" fill-rule="evenodd">
        <g id="Weather-Glyph" transform="translate(-754.000000, -335.000000)">
            <g id="Snow-3" transform="translate(748.000000, 327.000000)">
                <g id="Group-6" transform="translate(6.000000, 8.000000)" fill="#404852" fill-rule="nonzero">
                    <path d="M10,9 L10.1166211,9.00672773 C10.575703,9.06004937 10.9399506,9.42429701 10.9932723,9.88337887 L11,10 L11,10.585 L11.4142136,10.1715729 C11.7746975,9.81108891 12.3419286,9.78335938 12.7342198,10.0883843 L12.8284271,10.1715729 C13.1889111,10.5320568 13.2166406,11.0992879 12.9116157,11.4915791 L12.8284271,11.5857864 L12.413,12 L13,12 C13.5128358,12 13.9355072,12.3860402 13.9932723,12.8833789 L14,13 C14,13.5128358 13.6139598,13.9355072 13.1166211,13.9932723 L13,14 L12.414,14 L12.8284271,14.4142136 C13.1889111,14.7746975 13.2166406,15.3419286 12.9116157,15.7342198 L12.8284271,15.8284271 C12.4679432,16.1889111 11.9007121,16.2166406 11.5084209,15.9116157 L11.4142136,15.8284271 L11,15.414 L11,16 C11,16.5128358 10.6139598,16.9355072 10.1166211,16.9932723 L10,17 C9.48716416,17 9.06449284,16.6139598 9.00672773,16.1166211 L9,16 L8.999,15.414 L8.58578644,15.8284271 C8.19526215,16.2189514 7.56209717,16.2189514 7.17157288,15.8284271 C6.81108891,15.4679432 6.78335938,14.9007121 7.08838427,14.5084209 L7.17157288,14.4142136 L7.585,14 L7,14 C6.48716416,14 6.06449284,13.6139598 6.00672773,13.1166211 L6,13 C6,12.4871642 6.38604019,12.0644928 6.88337887,12.0067277 L7,12 L7.586,12 L7.17157288,11.5857864 C6.81108891,11.2253025 6.78335938,10.6580714 7.08838427,10.2657802 L7.17157288,10.1715729 C7.53205684,9.81108891 8.09928789,9.78335938 8.4915791,10.0883843 L8.58578644,10.1715729 L9,10.586 L9,10 C9,9.48716416 9.38604019,9.06449284 9.88337887,9.00672773 L10,9 Z M4,0 L4.11662113,0.00672773133 C4.57570299,0.0600493695 4.93995063,0.424297012 4.99327227,0.883378875 L5,1 L5,1.585 L5.41421356,1.17157288 C5.77469752,0.811088914 6.34192858,0.783359378 6.73421979,1.08838427 L6.82842712,1.17157288 C7.18891109,1.53205684 7.21664062,2.09928789 6.91161573,2.4915791 L6.82842712,2.58578644 L6.413,3 L7,3 C7.51283584,3 7.93550716,3.38604019 7.99327227,3.88337887 L8,4 C8,4.51283584 7.61395981,4.93550716 7.11662113,4.99327227 L7,5 L6.414,5 L6.82842712,5.41421356 C7.18891109,5.77469752 7.21664062,6.34192858 6.91161573,6.73421979 L6.82842712,6.82842712 C6.46794316,7.18891109 5.90071211,7.21664062 5.5084209,6.91161573 L5.41421356,6.82842712 L5,6.414 L5,7 C5,7.51283584 4.61395981,7.93550716 4.11662113,7.99327227 L4,8 C3.48716416,8 3.06449284,7.61395981 3.00672773,7.11662113 L3,7 L2.999,6.414 L2.58578644,6.82842712 C2.19526215,7.21895142 1.56209717,7.21895142 1.17157288,6.82842712 C0.811088914,6.46794316 0.783359378,5.90071211 1.08838427,5.5084209 L1.17157288,5.41421356 L1.585,5 L1,5 C0.487164161,5 0.0644928393,4.61395981 0.00672773133,4.11662113 L0,4 C0,3.48716416 0.38604019,3.06449284 0.883378875,3.00672773 L1,3 L1.586,3 L1.17157288,2.58578644 C0.811088914,2.22530248 0.783359378,1.65807142 1.08838427,1.26578021 L1.17157288,1.17157288 C1.53205684,0.811088914 2.09928789,0.783359378 2.4915791,1.08838427 L2.58578644,1.17157288 L3,1.586 L3,1 C3,0.487164161 3.38604019,0.0644928393 3.88337887,0.00672773133 L4,0 Z M15,0 L15.1166211,0.00672773133 C15.575703,0.0600493695 15.9399506,0.424297012 15.9932723,0.883378875 L16,1 L16,1.585 L16.4142136,1.17157288 C16.7746975,0.811088914 17.3419286,0.783359378 17.7342198,1.08838427 L17.8284271,1.17157288 C18.1889111,1.53205684 18.2166406,2.09928789 17.9116157,2.4915791 L17.8284271,2.58578644 L17.413,3 L18,3 C18.5128358,3 18.9355072,3.38604019 18.9932723,3.88337887 L19,4 C19,4.51283584 18.6139598,4.93550716 18.1166211,4.99327227 L18,5 L17.414,5 L17.8284271,5.41421356 C18.1889111,5.77469752 18.2166406,6.34192858 17.9116157,6.73421979 L17.8284271,6.82842712 C17.4679432,7.18891109 16.9007121,7.21664062 16.5084209,6.91161573 L16.4142136,6.82842712 L16,6.414 L16,7 C16,7.51283584 15.6139598,7.93550716 15.1166211,7.99327227 L15,8 C14.4871642,8 14.0644928,7.61395981 14.0067277,7.11662113 L14,7 L13.999,6.414 L13.5857864,6.82842712 C13.1952621,7.21895142 12.5620972,7.21895142 12.1715729,6.82842712 C11.8110889,6.46794316 11.7833594,5.90071211 12.0883843,5.5084209 L12.1715729,5.41421356 L12.585,5 L12,5 C11.4871642,5 11.0644928,4.61395981 11.0067277,4.11662113 L11,4 C11,3.48716416 11.3860402,3.06449284 11.8833789,3.00672773 L12,3 L12.586,3 L12.1715729,2.58578644 C11.8110889,2.22530248 11.7833594,1.65807142 12.0883843,1.26578021 L12.1715729,1.17157288 C12.5320568,0.811088914 13.0992879,0.783359378 13.4915791,1.08838427 L13.5857864,1.17157288 L14,1.586 L14,1 C14,0.487164161 14.3860402,0.0644928393 14.8833789,0.00672773133 L15,0 Z" id="Shape"></path>
                </g>
                <g id="Group-6" transform="translate(12.000000, 17.000000)"></g>
                <g id="Group-6-Copy" transform="translate(17.000000, 8.000000)"></g>
            </g>
        </g>
    </g>
</svg>