<?xml version="1.0" encoding="UTF-8"?>
<svg width="30px" height="25px" viewBox="0 0 30 25" version="1.1" xmlns="http://www.w3.org/2000/svg" xmlns:xlink="http://www.w3.org/1999/xlink">
    <!-- Generator: Sketch 58 (84663) - https://sketch.com -->
    <title>Sprinkle</title>
    <desc>Created with Sketch.</desc>
    <g id="Page-1" stroke="none" stroke-width="1" fill="none" fill-rule="evenodd">
        <g id="Weather-Glyph" transform="translate(-749.000000, -186.000000)">
            <g id="Sprinkle" transform="translate(748.000000, 183.000000)">
                <rect id="Rectangle" x="0" y="0" width="32" height="32"></rect>
                <g id="Group-3" transform="translate(1.000000, 3.000000)">
                    <path d="M14.8149445,19.3539837 C15.9638665,20.6343216 16.5567547,21.6224687 16.5567547,22.4986635 C16.5567547,23.8716882 15.4436982,24.9847447 14.0706735,24.9847447 C12.6976488,24.9847447 11.5845923,23.8716882 11.5845923,22.4986635 C11.5845923,21.6224687 12.1774806,20.6343216 13.3264026,19.3539837 C13.7237794,18.9111541 14.4175676,18.9111541 14.8149445,19.3539837 Z M11.1664148,-1.77635684e-15 C15.6846078,-1.77635684e-15 19.486884,3.20934044 20.350272,7.51243774 L20.3994415,7.77724132 L21.935742,7.77724132 C25.8610938,7.77724132 29.0432202,10.9593677 29.0432202,14.8847196 C29.0432202,18.8100715 25.8610938,21.9921979 21.935742,21.9921979 L17.5154524,21.9926332 C17.4284043,21.4587584 17.2032246,20.9160105 16.8348388,20.3301197 C17.0084772,20.3567381 17.1863356,20.370545 17.3674187,20.370545 C19.2927282,20.370545 20.8534999,18.8097733 20.8534999,16.8844638 C20.8534999,15.853158 20.3398585,14.8293328 19.2793504,13.5599356 L19.0740885,13.3189841 L18.8559606,13.0719063 C18.0612069,12.1862471 16.6736306,12.1862471 15.8788768,13.0719063 C15.1240179,13.9131074 14.5880213,14.6442046 14.2645991,15.3285436 C14.0080695,14.7891294 13.620728,14.2206642 13.0985013,13.592126 L12.8664198,13.3189841 L12.648292,13.0719063 C11.8535382,12.1862471 10.4659619,12.1862471 9.67120818,13.0719063 C8.32374631,14.5734934 7.6736689,15.7242447 7.6736689,16.8844638 C7.6736689,18.7455963 9.13212335,20.2660885 10.9684786,20.3653867 L11.1597501,20.370545 L11.2815628,20.3673701 C10.9281848,20.9392797 10.711058,21.4701241 10.6259219,21.9923511 L5.88598262,21.9921979 C2.63524418,21.9921979 -3.55271368e-14,19.3569537 -3.55271368e-14,16.1062153 C-3.55271368e-14,14.3499312 0.775981663,12.7248771 2.07238902,11.6223323 C1.89151944,10.8907441 1.79897669,10.1349973 1.79897669,9.36743807 C1.79897669,4.19394488 5.99292157,-1.77635684e-15 11.1664148,-1.77635684e-15 Z M18.1116897,13.7397841 C19.2606117,15.020122 19.8534999,16.008269 19.8534999,16.8844638 C19.8534999,18.2574885 18.7404435,19.370545 17.3674187,19.370545 C15.994394,19.370545 14.8813376,18.2574885 14.8813376,16.8844638 C14.8813376,16.008269 15.4742258,15.020122 16.6231478,13.7397841 C17.0205247,13.2969545 17.7143128,13.2969545 18.1116897,13.7397841 Z M11.904021,13.7397841 C13.052943,15.020122 13.6458312,16.008269 13.6458312,16.8844638 C13.6458312,18.2574885 12.5327748,19.370545 11.1597501,19.370545 C9.78672535,19.370545 8.6736689,18.2574885 8.6736689,16.8844638 C8.6736689,16.008269 9.26655712,15.020122 10.4154791,13.7397841 C10.812856,13.2969545 11.5066442,13.2969545 11.904021,13.7397841 Z" id="Shape" fill="#404852" fill-rule="nonzero"></path>
                    <g id="Group-2" transform="translate(8.521610, 12.732939)"></g>
                </g>
            </g>
        </g>
    </g>
</svg>