<?xml version="1.0" encoding="UTF-8"?>
<svg width="28px" height="28px" viewBox="0 0 28 28" version="1.1" xmlns="http://www.w3.org/2000/svg" xmlns:xlink="http://www.w3.org/1999/xlink">
    <!-- Generator: Sketch 58 (84663) - https://sketch.com -->
    <title>Stars-2</title>
    <desc>Created with Sketch.</desc>
    <g id="Page-1" stroke="none" stroke-width="1" fill="none" fill-rule="evenodd">
        <g id="Weather-Glyph" transform="translate(-606.000000, -257.000000)" fill="#404852" fill-rule="nonzero">
            <g id="Stars-2" transform="translate(604.000000, 255.000000)">
                <path d="M11.3773552,13.5201585 L13.8884633,18.1115367 L18.4798415,20.6226448 C19.1733862,21.001957 19.1733862,21.998043 18.4798415,22.3773552 L13.8884633,24.8884633 L11.3773552,29.4798415 C10.998043,30.1733862 10.001957,30.1733862 9.6226448,29.4798415 L7.11153669,24.8884633 L2.52015851,22.3773552 C1.82661383,21.998043 1.82661383,21.001957 2.52015851,20.6226448 L7.11153669,18.1115367 L9.6226448,13.5201585 C10.001957,12.8266138 10.998043,12.8266138 11.3773552,13.5201585 Z M25.8773552,11.5201585 L27.1510264,13.8489736 L29.4798415,15.1226448 C30.1733862,15.501957 30.1733862,16.498043 29.4798415,16.8773552 L27.1510264,18.1510264 L25.8773552,20.4798415 C25.498043,21.1733862 24.501957,21.1733862 24.1226448,20.4798415 L22.8489736,18.1510264 L20.5201585,16.8773552 C19.8266138,16.498043 19.8266138,15.501957 20.5201585,15.1226448 L22.8489736,13.8489736 L24.1226448,11.5201585 C24.501957,10.8266138 25.498043,10.8266138 25.8773552,11.5201585 Z M18.3773552,2.52015851 L20.1813565,5.81864347 L23.4798415,7.6226448 C24.1733862,8.00195698 24.1733862,8.99804302 23.4798415,9.3773552 L20.1813565,11.1813565 L18.3773552,14.4798415 C17.998043,15.1733862 17.001957,15.1733862 16.6226448,14.4798415 L14.8186435,11.1813565 L11.5201585,9.3773552 C10.8266138,8.99804302 10.8266138,8.00195698 11.5201585,7.6226448 L14.8186435,5.81864347 L16.6226448,2.52015851 C17.001957,1.82661383 17.998043,1.82661383 18.3773552,2.52015851 Z" id="Shape"></path>
            </g>
        </g>
    </g>
</svg>