<?xml version="1.0" encoding="UTF-8"?>
<svg width="28px" height="28px" viewBox="0 0 28 28" version="1.1" xmlns="http://www.w3.org/2000/svg" xmlns:xlink="http://www.w3.org/1999/xlink">
    <!-- Generator: Sketch 58 (84663) - https://sketch.com -->
    <title>Stars-1</title>
    <desc>Created with Sketch.</desc>
    <g id="Page-1" stroke="none" stroke-width="1" fill="none" fill-rule="evenodd">
        <g id="Weather-Glyph" transform="translate(-534.000000, -257.000000)" fill="#404852" fill-rule="nonzero">
            <g id="Stars-1" transform="translate(532.000000, 255.000000)">
                <path d="M17.8773552,16.5201585 L19.8581332,20.1418668 L23.4798415,22.1226448 C24.1733862,22.501957 24.1733862,23.498043 23.4798415,23.8773552 L19.8581332,25.8581332 L17.8773552,29.4798415 C17.498043,30.1733862 16.501957,30.1733862 16.1226448,29.4798415 L14.1418668,25.8581332 L10.5201585,23.8773552 C9.82661383,23.498043 9.82661383,22.501957 10.5201585,22.1226448 L14.1418668,20.1418668 L16.1226448,16.5201585 C16.501957,15.8266138 17.498043,15.8266138 17.8773552,16.5201585 Z M11.3773552,2.52015851 L13.8884633,7.11153669 L18.4798415,9.6226448 C19.1733862,10.001957 19.1733862,10.998043 18.4798415,11.3773552 L13.8884633,13.8884633 L11.3773552,18.4798415 C10.998043,19.1733862 10.001957,19.1733862 9.6226448,18.4798415 L7.11153669,13.8884633 L2.52015851,11.3773552 C1.82661383,10.998043 1.82661383,10.001957 2.52015851,9.6226448 L7.11153669,7.11153669 L9.6226448,2.52015851 C10.001957,1.82661383 10.998043,1.82661383 11.3773552,2.52015851 Z M25.8773552,9.52015851 L27.1510264,11.8489736 L29.4798415,13.1226448 C30.1733862,13.501957 30.1733862,14.498043 29.4798415,14.8773552 L27.1510264,16.1510264 L25.8773552,18.4798415 C25.498043,19.1733862 24.501957,19.1733862 24.1226448,18.4798415 L22.8489736,16.1510264 L20.5201585,14.8773552 C19.8266138,14.498043 19.8266138,13.501957 20.5201585,13.1226448 L22.8489736,11.8489736 L24.1226448,9.52015851 C24.501957,8.82661383 25.498043,8.82661383 25.8773552,9.52015851 Z" id="Shape"></path>
            </g>
        </g>
    </g>
</svg>