<?xml version="1.0" encoding="UTF-8"?>
<svg width="31px" height="27px" viewBox="0 0 31 27" version="1.1" xmlns="http://www.w3.org/2000/svg" xmlns:xlink="http://www.w3.org/1999/xlink">
    <!-- Generator: Sketch 58 (84663) - https://sketch.com -->
    <title>Sun Cloud</title>
    <desc>Created with Sketch.</desc>
    <g id="Page-1" stroke="none" stroke-width="1" fill="none" fill-rule="evenodd">
        <g id="Weather-Glyph" transform="translate(-388.000000, -186.000000)">
            <g id="Sun-Cloud" transform="translate(388.000000, 183.000000)">
                <rect id="Rectangle" x="0" y="0" width="32" height="32"></rect>
                <g id="Group-2" transform="translate(0.000000, 3.000000)">
                    <g id="Group-2-Copy-2" transform="translate(16.000000, 13.500000) scale(-1, 1) translate(-16.000000, -13.500000) ">
                        <path d="M20.3551954,5.00390106 C25.5286886,5.00390106 29.7226334,9.19784594 29.7226334,14.3713391 C29.7226334,15.1391431 29.6300295,15.8949486 29.4490078,16.6260515 C30.7455348,17.7285919 31.5216101,19.3537271 31.5216101,21.1101163 C31.5216101,24.3608548 28.8863659,26.9960989 25.6356275,26.9960989 L9.58586816,26.9960989 C5.66051629,26.9960989 2.47838988,23.8139725 2.47838988,19.8886207 C2.47838988,17.1485664 4.02891411,14.7706566 6.30042539,13.5844282 C5.70513213,12.694623 5.37563892,11.6382002 5.37563892,10.530921 C5.37563892,7.49335489 7.8380728,5.03092102 10.8756389,5.03092102 C12.4239989,5.03092102 13.8628456,5.67645407 14.8854064,6.7658585 C16.4274801,5.65596798 18.3186069,5.00390106 20.3551954,5.00390106 Z M10.8756389,7.03092102 C8.9426423,7.03092102 7.37563892,8.59792439 7.37563892,10.530921 C7.37563892,11.4221834 7.709136,12.2583409 8.29792888,12.8985724 C8.71642734,12.8210112 9.14649181,12.7811424 9.58586816,12.7811424 L11.1221374,12.7813249 C11.4271752,10.9953298 12.2359978,9.38667807 13.3944218,8.10210831 C12.7463433,7.42775825 11.8453798,7.03092102 10.8756389,7.03092102 Z M3.7903176,9.27715525 C4.34260235,9.27715525 4.7903176,9.7248705 4.7903176,10.2771552 C4.7903176,10.7899911 4.40427741,11.2126624 3.90693873,11.2704275 L3.7903176,11.2771552 L1.96096024,11.2771552 C1.40867549,11.2771552 0.960960245,10.82944 0.960960245,10.2771552 C0.960960245,9.76431941 1.34700043,9.34164809 1.84433912,9.28388298 L1.96096024,9.27715525 L3.7903176,9.27715525 Z M5.37890817,3.16056327 L5.47311551,3.24375188 L6.7666665,4.53730287 C7.1571908,4.92782716 7.1571908,5.56099214 6.7666665,5.95151643 C6.40618254,6.31200039 5.83895149,6.33972993 5.44666028,6.03470504 L5.35245294,5.95151643 L4.05890195,4.65796544 C3.66837766,4.26744115 3.66837766,3.63427617 4.05890195,3.24375188 C4.41938591,2.88326791 4.98661697,2.85553838 5.37890817,3.16056327 Z M10.7771552,0.709682397 C11.2899911,0.709682397 11.7126624,1.09572259 11.7704275,1.59306127 L11.7771552,1.7096824 L11.7771552,3.53903976 C11.7771552,4.09132451 11.32944,4.53903976 10.7771552,4.53903976 C10.2643194,4.53903976 9.84164809,4.15299957 9.78388298,3.65566088 L9.77715525,3.53903976 L9.77715525,1.7096824 C9.77715525,1.15739765 10.2248705,0.709682397 10.7771552,0.709682397 Z" id="Shape" fill="#404852" fill-rule="nonzero"></path>
                        <g id="Group" transform="translate(10.000000, 1.000000)"></g>
                        <g id="Group-Copy" transform="translate(3.000000, 10.500000) rotate(-270.000000) translate(-3.000000, -10.500000) translate(2.000000, 9.000000)"></g>
                        <g id="Group-Copy-2" transform="translate(5.343146, 4.428932) rotate(-225.000000) translate(-5.343146, -4.428932) translate(4.343146, 2.928932)"></g>
                    </g>
                </g>
            </g>
        </g>
    </g>
</svg>