<?xml version="1.0" encoding="UTF-8"?>
<svg width="27px" height="27px" viewBox="0 0 27 27" version="1.1" xmlns="http://www.w3.org/2000/svg" xmlns:xlink="http://www.w3.org/1999/xlink">
    <!-- Generator: Sketch 58 (84663) - https://sketch.com -->
    <title>Sunlight</title>
    <desc>Created with Sketch.</desc>
    <g id="Page-1" stroke="none" stroke-width="1" fill="none" fill-rule="evenodd">
        <g id="Weather-Glyph" transform="translate(-102.000000, -186.000000)">
            <g id="Sunlight" transform="translate(100.000000, 183.000000)">
                <rect id="Rectangle" x="0" y="0" width="32" height="32"></rect>
                <g id="Group-2" transform="translate(2.000000, 3.000000)">
                    <path d="M13.0361658,22.4689741 C13.5490017,22.4689741 13.971673,22.8550143 14.0294381,23.352353 L14.0361658,23.4689741 L14.0361658,25.9288523 C14.0361658,26.4811371 13.5884506,26.9288523 13.0361658,26.9288523 C12.52333,26.9288523 12.1006587,26.5428121 12.0428936,26.0454734 L12.0361658,25.9288523 L12.0361658,23.4689741 C12.0361658,22.9166894 12.4838811,22.4689741 13.0361658,22.4689741 Z M7.63616412,19.8977715 C7.99664808,20.2582555 8.02437762,20.8254865 7.71935272,21.2177777 L7.63616412,21.3119851 L5.89676757,23.0513816 C5.50624328,23.4419059 4.8730783,23.4419059 4.48255401,23.0513816 C4.12207005,22.6908976 4.09434051,22.1236666 4.39936541,21.7313754 L4.48255401,21.637168 L6.22195056,19.8977715 C6.61247485,19.5072472 7.24563983,19.5072472 7.63616412,19.8977715 Z M20.7792503,19.3908107 L20.8734577,19.4739993 L22.6128542,21.2133958 C23.0033785,21.6039201 23.0033785,22.2370851 22.6128542,22.6276094 C22.2523703,22.9880934 21.6851392,23.0158229 21.292848,22.710798 L21.1986407,22.6276094 L19.4592441,20.8882129 C19.0687198,20.4976886 19.0687198,19.8645236 19.4592441,19.4739993 C19.8197281,19.1135153 20.3869591,19.0857858 20.7792503,19.3908107 Z M13.1660342,6.89056403 C17.0601971,6.89056403 20.2170399,10.0474068 20.2170399,13.9415697 C20.2170399,17.8357327 17.0601971,20.9925755 13.1660342,20.9925755 C9.27187124,20.9925755 6.11502846,17.8357327 6.11502846,13.9415697 C6.11502846,10.0474068 9.27187124,6.89056403 13.1660342,6.89056403 Z M25.1558762,12.4746932 C25.708161,12.4746932 26.1558762,12.9224084 26.1558762,13.4746932 C26.1558762,13.987529 25.7698361,14.4102004 25.2724974,14.4679655 L25.1558762,14.4746932 L22.6959981,14.4746932 C22.1437133,14.4746932 21.6959981,14.0269779 21.6959981,13.4746932 C21.6959981,12.9618574 22.0820383,12.539186 22.5793769,12.4814209 L22.6959981,12.4746932 L25.1558762,12.4746932 Z M3.64118927,12.4746932 C4.19347402,12.4746932 4.64118927,12.9224084 4.64118927,13.4746932 C4.64118927,13.987529 4.25514908,14.4102004 3.7578104,14.4679655 L3.64118927,14.4746932 L1.18131109,14.4746932 C0.629026339,14.4746932 0.181311089,14.0269779 0.181311089,13.4746932 C0.181311089,12.9618574 0.567351279,12.539186 1.06468996,12.4814209 L1.18131109,12.4746932 L3.64118927,12.4746932 Z M21.4351316,4.68459044 C21.8256559,4.29406615 22.4588209,4.29406615 22.8493452,4.68459044 C23.2398695,5.07511473 23.2398695,5.70827971 22.8493452,6.098804 L21.1099486,7.83820054 C20.7194243,8.22872483 20.0862594,8.22872483 19.6957351,7.83820054 C19.3052108,7.44767625 19.3052108,6.81451127 19.6957351,6.42398698 L21.4351316,4.68459044 Z M5.56606929,4.17762963 L5.66027663,4.26081824 L7.39967317,6.00021478 C7.79019746,6.39073907 7.79019746,7.02390405 7.39967317,7.41442834 C7.03918921,7.77491231 6.47195815,7.80264184 6.07966695,7.49761695 L5.98545961,7.41442834 L4.24606307,5.6750318 C3.85553877,5.28450751 3.85553877,4.65134253 4.24606307,4.26081824 C4.60654703,3.90033428 5.17377808,3.87260474 5.56606929,4.17762963 Z M13.0361658,0.954287164 C13.5490017,0.954287164 13.971673,1.34032735 14.0294381,1.83766604 L14.0361658,1.95428716 L14.0361658,4.41416535 C14.0361658,4.9664501 13.5884506,5.41416535 13.0361658,5.41416535 C12.52333,5.41416535 12.1006587,5.02812516 12.0428936,4.53078647 L12.0361658,4.41416535 L12.0361658,1.95428716 C12.0361658,1.40200241 12.4838811,0.954287164 13.0361658,0.954287164 Z" id="Shape" fill="#404852" fill-rule="nonzero"></path>
                    <g id="Group" transform="translate(11.991150, 0.000000)"></g>
                    <g id="Group-Copy" transform="translate(13.610163, 13.929677) rotate(-270.000000) translate(-13.610163, -13.929677) translate(12.110163, 0.429677)"></g>
                    <g id="Group-Copy-2" transform="translate(13.419973, 14.078173) rotate(-225.000000) translate(-13.419973, -14.078173) translate(11.919973, 0.578173)"></g>
                    <g id="Group-Copy-3" transform="translate(13.031990, 13.858501) rotate(-135.000000) translate(-13.031990, -13.858501) translate(11.531990, 0.358501)"></g>
                </g>
            </g>
        </g>
    </g>
</svg>