<?xml version="1.0" encoding="UTF-8"?>
<svg width="27px" height="20px" viewBox="0 0 27 20" version="1.1" xmlns="http://www.w3.org/2000/svg" xmlns:xlink="http://www.w3.org/1999/xlink">
    <!-- Generator: Sketch 58 (84663) - https://sketch.com -->
    <title>Sunrise</title>
    <desc>Created with Sketch.</desc>
    <g id="Page-1" stroke="none" stroke-width="1" fill="none" fill-rule="evenodd">
        <g id="Weather-Glyph" transform="translate(-534.000000, -333.000000)">
            <g id="Sunrise" transform="translate(532.000000, 327.000000)">
                <rect id="Rectangle" x="0" y="0" width="32" height="32"></rect>
                <g id="Group-2" transform="translate(1.000000, 6.000000)">
                    <path d="M20.9437379,15.8913011 C21.1244209,15.262222 21.2170399,14.6075482 21.2170399,13.9415697 C21.2170399,10.0474068 18.0601971,6.89056403 14.1660342,6.89056403 C10.2718712,6.89056403 7.11502846,10.0474068 7.11502846,13.9415697 C7.11502846,14.6239412 7.21226411,15.2943957 7.40178249,15.9375372 C7.52747575,16.3640844 7.91973464,16.6563886 8.36441325,16.654878 L19.9860071,16.615238 C20.4307061,16.6137214 20.8209748,16.3187221 20.9437379,15.8913011 Z" id="Path" fill="#404852" fill-rule="nonzero"></path>
                    <g id="Group" transform="translate(0.991150, 0.000000)" fill="#404852" fill-rule="nonzero">
                        <path d="M25.190161,17.4746932 C25.7424458,17.4746932 26.190161,17.9224084 26.190161,18.4746932 C26.190161,18.987529 25.8041208,19.4102004 25.3067821,19.4679655 L25.190161,19.4746932 L1.19016101,19.4746932 C0.637876256,19.4746932 0.190161005,19.0269779 0.190161005,18.4746932 C0.190161005,17.9618574 0.576201196,17.539186 1.07353988,17.4814209 L1.19016101,17.4746932 L25.190161,17.4746932 Z M25.1647262,12.4746932 C25.7170109,12.4746932 26.1647262,12.9224084 26.1647262,13.4746932 C26.1647262,13.987529 25.778686,14.4102004 25.2813473,14.4679655 L25.1647262,14.4746932 L22.704848,14.4746932 C22.1525632,14.4746932 21.704848,14.0269779 21.704848,13.4746932 C21.704848,12.9618574 22.0908882,12.539186 22.5882269,12.4814209 L22.704848,12.4746932 L25.1647262,12.4746932 Z M3.65003919,12.4746932 C4.20232394,12.4746932 4.65003919,12.9224084 4.65003919,13.4746932 C4.65003919,13.987529 4.263999,14.4102004 3.76666031,14.4679655 L3.65003919,14.4746932 L1.19016101,14.4746932 C0.637876256,14.4746932 0.190161005,14.0269779 0.190161005,13.4746932 C0.190161005,12.9618574 0.576201196,12.539186 1.07353988,12.4814209 L1.19016101,12.4746932 L3.65003919,12.4746932 Z M19.704585,6.42398698 L21.4439815,4.68459044 C21.8345058,4.29406615 22.4676708,4.29406615 22.8581951,4.68459044 C23.2186791,5.0450744 23.2464086,5.61230545 22.9413837,6.00459666 L22.8581951,6.098804 L21.1187985,7.83820054 C20.7282743,8.22872483 20.0951093,8.22872483 19.704585,7.83820054 C19.344101,7.47771658 19.3163715,6.91048553 19.6213964,6.51819432 L19.704585,6.42398698 L21.4439815,4.68459044 L19.704585,6.42398698 Z M5.57491921,4.17762963 L5.66912654,4.26081824 L7.40852309,6.00021478 C7.79904738,6.39073907 7.79904738,7.02390405 7.40852309,7.41442834 C7.04803913,7.77491231 6.48080807,7.80264184 6.08851686,7.49761695 L5.99430953,7.41442834 L4.25491298,5.6750318 C3.86438869,5.28450751 3.86438869,4.65134253 4.25491298,4.26081824 C4.61539694,3.90033428 5.182628,3.87260474 5.57491921,4.17762963 Z M13.0450157,0.954287164 C13.5578516,0.954287164 13.9805229,1.34032735 14.038288,1.83766604 L14.0450157,1.95428716 L14.0450157,4.41416535 C14.0450157,4.9664501 13.5973005,5.41416535 13.0450157,5.41416535 C12.5321799,5.41416535 12.1095086,5.02812516 12.0517435,4.53078647 L12.0450157,4.41416535 L12.0450157,1.95428716 C12.0450157,1.40200241 12.492731,0.954287164 13.0450157,0.954287164 Z" id="Shape"></path>
                    </g>
                    <g id="Group-Copy" transform="translate(14.610163, 15.929677) rotate(-270.000000) translate(-14.610163, -15.929677) translate(11.110163, 3.429677)"></g>
                    <g id="Group-Copy-2" transform="translate(6.995352, 5.946445) rotate(-225.000000) translate(-6.995352, -5.946445) translate(5.995352, 4.446445)"></g>
                    <g id="Group-Copy-3" transform="translate(22.163718, 6.433879) rotate(-135.000000) translate(-22.163718, -6.433879) translate(21.163718, 4.933879)"></g>
                </g>
            </g>
        </g>
    </g>
</svg>