<?xml version="1.0" encoding="UTF-8"?>
<svg width="30px" height="25px" viewBox="0 0 30 25" version="1.1" xmlns="http://www.w3.org/2000/svg" xmlns:xlink="http://www.w3.org/1999/xlink">
    <!-- Generator: Sketch 58 (84663) - https://sketch.com -->
    <title>Thunderstorm</title>
    <desc>Created with Sketch.</desc>
    <g id="Page-1" stroke="none" stroke-width="1" fill="none" fill-rule="evenodd">
        <g id="Weather-Glyph" transform="translate(-101.000000, -259.000000)">
            <g id="Thunderstorm" transform="translate(100.000000, 255.000000)">
                <rect id="Rectangle" x="0" y="0" width="32" height="32"></rect>
                <g id="Group-3" transform="translate(1.000000, 4.000000)" fill="#404852" fill-rule="nonzero">
                    <path d="M13.7432607,11.9577262 C13.9650314,11.9577262 14.1840431,12.0069012 14.3845262,12.1017105 C15.133433,12.4558717 15.4534375,13.3500849 15.0992763,14.0989917 L14.5382889,15.2852519 L15.1777019,15.2852519 C15.5098912,15.2852519 15.8326834,15.3955221 16.0954423,15.5987644 C16.7507213,16.1056185 16.8710434,17.0477134 16.3641894,17.7029923 L11.5750406,23.8945746 C11.1891646,24.3934488 10.5324415,24.5976586 9.93170971,24.4055729 C9.14263914,24.1532653 8.7075068,23.3090614 8.95981442,22.5199909 L9.83564793,19.7808962 L8.63602171,19.7808962 C8.43288155,19.7808962 8.23185804,19.7396346 8.04514276,19.6596138 C7.28369809,19.3332804 6.93097074,18.451462 7.25730417,17.6900173 L9.32437705,12.8668472 C9.56074524,12.3153215 10.1030524,11.9577262 10.7030946,11.9577262 L13.7432607,11.9577262 Z M11.1664148,0 C15.7768158,0 19.6417808,3.3416706 20.3994415,7.77724132 L21.935742,7.77724132 C25.8610938,7.77724132 29.0432202,10.9593677 29.0432202,14.8847196 C29.0432202,18.8100715 25.8610938,21.9921979 21.935742,21.9921979 L19.0006002,21.9921977 L14.308,21.995 L17.1551811,18.3148193 C17.9999378,17.2226877 17.7994008,15.6525295 16.7072692,14.8077728 C16.5043402,14.6508085 16.279927,14.5271161 16.0424268,14.4395641 C16.5685145,13.2098989 16.0313599,11.7743232 14.8120365,11.1977001 C14.477898,11.0396845 14.1128786,10.9577262 13.7432607,10.9577262 L10.7030946,10.9577262 C9.70302433,10.9577262 8.799179,11.5537183 8.40523202,12.4729279 L6.33815914,17.296098 C5.79427008,18.5651725 6.38214901,20.0348698 7.65122347,20.5787588 C7.91076663,20.6899916 8.18689791,20.7562893 8.46782898,20.7752323 L8.076,21.999 L6.00060016,22 L5.88731538,21.9936308 C4.72509406,21.8618269 3.89099386,21.6792472 3.33811167,21.4134198 C1.31484358,20.4406265 -5.68434189e-14,18.391636 -5.68434189e-14,16.1062153 C-5.68434189e-14,14.3499312 0.775981663,12.7248771 2.07238902,11.6223323 C1.89151944,10.8907441 1.79897669,10.1349973 1.79897669,9.36743807 C1.79897669,4.19394488 5.99292157,0 11.1664148,0 Z" id="Shape"></path>
                </g>
            </g>
        </g>
    </g>
</svg>