<?xml version="1.0" encoding="UTF-8"?>
<svg width="27px" height="27px" viewBox="0 0 27 27" version="1.1" xmlns="http://www.w3.org/2000/svg" xmlns:xlink="http://www.w3.org/1999/xlink">
    <!-- Generator: Sketch 58 (84663) - https://sketch.com -->
    <title>Tornado-2</title>
    <desc>Created with Sketch.</desc>
    <g id="Page-1" stroke="none" stroke-width="1" fill="none" fill-rule="evenodd">
        <g id="Weather-Glyph" transform="translate(-613.000000, -403.000000)" fill="#404852" fill-rule="nonzero">
            <g id="Tornado-2" transform="translate(610.000000, 400.000000)">
                <path d="M16.1255323,3.001394 L16.8744677,3.001394 C24.2131039,3.05617647 30,4.72279413 30,7.5 C30,8.87153959 28.5886126,9.97221374 26.2759553,10.7416481 C26.7424741,11.260908 27,11.8487991 27,12.5 C27,13.8806338 25.8142786,15.0068396 23.9059211,15.7872829 C24.6004882,16.3717789 25,17.0708313 25,17.8687587 C25,19.1450594 23.9704085,20.1824899 22.3198641,20.898515 C22.7535032,21.358377 23,21.8946151 23,22.4950069 C23,23.6587473 22.0873933,24.5807203 20.654499,25.1864087 C20.8782319,25.5905064 21,26.0322321 21,26.4950069 C21,28.5543997 18.6916498,30 16,30 C13.3083502,30 11,28.5543997 11,26.4950069 C11,26.031339 11.1218692,25.5898699 11.3461187,25.1865282 C9.91260668,24.5807203 9,23.6587473 9,22.4950069 C9,21.8930499 9.24569508,21.3576207 9.6791853,20.8978756 C8.02918143,20.1820767 7,19.1448052 7,17.8687587 C7,16.9356823 7.54223619,16.1411388 8.4664057,15.5042213 C6.92932628,14.7451516 6,13.7222816 6,12.5 C6,11.8480277 6.25633209,11.2607064 6.72187215,10.7411329 C4.41098376,9.97189894 3,8.87134346 3,7.5 C3,4.72279413 8.78689605,3.05617647 16.1255323,3.001394 L16.1255323,3.001394 Z M13.4172912,25.780304 L13.3294237,25.8594373 C13.1037541,26.0786083 13,26.296094 13,26.4950069 C13,27.2025531 14.2733718,28 16,28 C17.7266282,28 19,27.2025531 19,26.4950069 C19,26.3181367 18.918606,26.1276592 18.7405795,25.9320026 L18.5917699,25.7786711 C17.7869429,25.9240114 16.9113721,26 16,26 C15.092047,26 14.2196271,25.9245805 13.4172912,25.780304 L13.3294237,25.8594373 L13.4172912,25.780304 Z M10.5408378,16.2756156 L10.5351845,16.2970712 C10.4591573,16.54144 10.2899067,16.7568054 10.0454528,16.8852457 C9.31892156,17.266978 9,17.6370307 9,17.8687587 C9,18.184922 9.55877287,18.7020025 10.7076265,19.1516697 C12.0742388,19.6865689 13.9675058,20 16,20 C18.0324942,20 19.9257612,19.6865689 21.2923735,19.1516697 C22.4412271,18.7020025 23,18.184922 23,17.8687587 C23,17.6638868 22.7467391,17.3426002 22.1486059,16.9927443 C21.9365124,16.8686881 21.7870273,16.6785881 21.7109774,16.4637843 C20.2603246,16.7927961 18.5930013,16.9783147 16.819474,16.9982119 L16.180526,16.9982119 C14.0943427,16.9748071 12.1551097,16.7222386 10.5408378,16.2756156 Z M16.8484057,5.00148839 L16.1515943,5.00148839 C10.0170482,5.05386766 5,6.47757495 5,7.5 C5,8.42596986 9.11508686,9.68107972 14.4485132,9.9485613 L15.1213274,9.97675735 L15.8055755,9.99409408 L16.5,10 L17.1944245,9.99409408 C23.1704883,9.89255039 28,8.50313401 28,7.5 C28,6.47757495 22.9829518,5.05386766 16.8484057,5.00148839 L16.8484057,5.00148839 Z" id="Shape"></path>
            </g>
        </g>
    </g>
</svg>