<?xml version="1.0" encoding="UTF-8"?>
<svg width="28px" height="27px" viewBox="0 0 28 27" version="1.1" xmlns="http://www.w3.org/2000/svg" xmlns:xlink="http://www.w3.org/1999/xlink">
    <!-- Generator: Sketch 58 (84663) - https://sketch.com -->
    <title>Tornado-1</title>
    <desc>Created with Sketch.</desc>
    <g id="Page-1" stroke="none" stroke-width="1" fill="none" fill-rule="evenodd">
        <g id="Weather-Glyph" transform="translate(-540.000000, -403.000000)" fill="#404852" fill-rule="nonzero">
            <g id="Tornado-1" transform="translate(538.000000, 400.000000)">
                <path d="M15.6173026,3.00134176 L16.3826974,3.00134176 C24.0097685,3.05496784 30,4.71340438 30,7.5 C30,9.00654792 28.2490989,10.1833431 25.4352435,10.9550626 C25.8010537,11.4181402 26,11.9335517 26,12.5 C26,13.5485078 25.2923775,14.4478909 24.0843333,15.1608571 C24.6695234,15.6803882 25,16.2935557 25,17 C25,17.9114054 24.4287923,18.6911317 23.4484722,19.3136093 C24.4225775,19.8677675 25,20.5907282 25,21.5 C25,22.0334367 24.7906864,22.5130562 24.4113932,22.9338122 C25.4022415,23.4239675 26,24.1038687 26,25 C26,25.1444365 25.9835982,25.2840415 25.9517583,25.4187303 C27.1944088,25.8176656 28,26.4964175 28,27.5 C28,29.1482611 25.7286962,30 23,30 C20.5247338,30 18.4258441,29.299126 18.0573231,27.9385946 C15.1770099,27.6867784 13,26.6640321 13,25 C13,24.8616319 13.0149852,24.728226 13.0439337,24.5997502 C10.6344438,24.0610198 9,22.9906276 9,21.5 C9,21.0076171 9.17174311,20.5693813 9.48360474,20.1829329 C7.3598042,19.4989644 6,18.4062183 6,17 C6,16.4462412 6.20431201,15.9490561 6.57450325,15.5085732 C4.9686194,14.7493239 4,13.7267256 4,12.5 C4,11.7198449 4.3715383,11.0387021 5.03855774,10.4550959 C3.13224989,9.70975911 2,8.71149964 2,7.5 C2,4.71340438 7.99023153,3.05496784 15.6173026,3.00134176 Z M22.2465543,24.2331665 L22.1455192,24.2690901 C20.7515777,24.7458162 18.9541977,25 17,25 C16.3638159,25 15.7442516,24.9730613 15.1498158,24.9202756 L15.0347002,24.9984517 L15.0347002,24.9984517 L15.015,25.008 L15.1450079,25.0932358 C15.2733552,25.1729253 15.4876621,25.2926037 15.8035831,25.4178184 L15.9526558,25.4744201 C16.8602246,25.8044452 18.1316693,26 19.5,26 C20.8683307,26 22.1397754,25.8044452 23.0473442,25.4744201 C23.2532629,25.3995406 23.4225697,25.324755 23.5583258,25.2574223 L23.7561121,25.1521828 L23.8852989,25.0741885 L23.9726492,25.0169759 L23.8210073,24.9060357 C23.5466208,24.7107374 23.1021325,24.5189895 22.5362823,24.3644535 C22.4304411,24.3355478 22.3332363,24.2906841 22.2465543,24.2331665 Z M21.8792754,16.0994774 L21.7351662,16.1430478 C19.8719991,16.697576 17.5337493,17 15,17 C12.6926013,17 10.5473326,16.7491961 8.77534267,16.2855912 C8.22750843,16.5933584 8,16.8636561 8,17 C8,17.8213439 11.3395255,19 15.5,19 C19.6604745,19 23,17.8213439 23,17 C23,16.8509318 22.7386563,16.557016 22.1321375,16.233585 L21.9732681,16.152179 C21.9406583,16.136108 21.9093126,16.1184971 21.8792754,16.0994774 Z M16.3562069,5.00144349 L15.6437931,5.00144349 C9.25268155,5.05320361 4,6.48582662 4,7.5 C4,8.4769592 8.8742692,9.84222218 14.9450467,9.98736971 L15.2899287,9.99427173 L16,10 L16.7100713,9.99427173 C22.9400609,9.89387978 28,8.49539239 28,7.5 C28,6.48582662 22.7473185,5.05320361 16.3562069,5.00144349 L16.3562069,5.00144349 Z" id="Shape"></path>
            </g>
        </g>
    </g>
</svg>