<?xml version="1.0" encoding="UTF-8"?>
<svg width="26px" height="24px" viewBox="0 0 26 24" version="1.1" xmlns="http://www.w3.org/2000/svg" xmlns:xlink="http://www.w3.org/1999/xlink">
    <!-- Generator: Sketch 58 (84663) - https://sketch.com -->
    <title>Umbrella-2</title>
    <desc>Created with Sketch.</desc>
    <g id="Page-1" stroke="none" stroke-width="1" fill="none" fill-rule="evenodd">
        <g id="Weather-Glyph" transform="translate(-391.000000, -330.000000)" fill="#404852" fill-rule="nonzero">
            <g id="Umbrella-2" transform="translate(388.000000, 327.000000)">
                <g id="Group-2" transform="translate(16.000000, 16.000000) rotate(-315.000000) translate(-16.000000, -16.000000) translate(2.000000, 1.000000)">
                    <g id="Group-3" transform="translate(0.000000, 0.326169)">
                        <path d="M14.0945004,0.0472502181 C14.6073363,0.0472502181 15.0300076,0.433290408 15.0877727,0.930629093 L15.0945004,1.04725022 L15.0948209,2.72621532 C22.0268268,3.2378758 27.4919128,9.02414166 27.4919128,16.0868467 C27.4919128,16.6391315 27.0441976,17.0868467 26.4919128,17.0868467 C25.9396281,17.0868467 25.4919128,16.6391315 25.4919128,16.0868467 L25.490088,16.0102502 L20.2877452,16.0118215 C20.1653884,16.4258185 19.7822836,16.727912 19.3286212,16.727912 C18.8749587,16.727912 18.491854,16.4258185 18.3694971,16.0118215 L15.094088,16.0102502 L15.0945004,23.3990718 C15.0945004,26.4224554 13.8709446,28.1990718 11.4774401,28.1990718 C9.08393556,28.1990718 7.8603797,26.4224554 7.8603797,23.3990718 C7.8603797,22.846787 8.30809495,22.3990718 8.8603797,22.3990718 C9.41266445,22.3990718 9.8603797,22.846787 9.8603797,23.3990718 C9.8603797,25.4423548 10.3815308,26.1990718 11.4774401,26.1990718 C12.531199,26.1990718 13.0535617,25.4994444 13.0921846,23.6291557 L13.0945004,23.3990718 L13.094088,16.0102502 L9.81950375,16.0118215 C9.69714691,16.4258185 9.31404217,16.727912 8.8603797,16.727912 C8.40671723,16.727912 8.02361249,16.4258185 7.90125565,16.0118215 L2.69733749,16.0106364 L2.69708804,16.0868467 L2.69708804,16.0868467 C2.69708804,16.6391315 2.24937279,17.0868467 1.69708804,17.0868467 C1.14480329,17.0868467 0.697088037,16.6391315 0.697088037,16.0868467 C0.697088037,9.02414166 6.16217408,3.2378758 13.09418,2.72621532 L13.0945004,1.04725022 C13.0945004,0.494965468 13.5422157,0.0472502181 14.0945004,0.0472502181 Z M10.2259647,5.362182 C6.4662956,6.71891919 3.62444329,9.99669829 2.88571293,14.0107953 L7.91059946,14.0101198 C8.11736128,10.5079088 8.95237613,7.42339339 10.2259647,5.362182 Z M17.9626733,5.36262126 C19.2365745,7.42345419 20.0716326,10.5079172 20.2784004,14.0101209 L25.3032917,14.010826 C24.5645727,9.9967906 21.7227318,6.71908764 17.9626733,5.36262126 Z" id="Shape"></path>
                    </g>
                </g>
            </g>
        </g>
    </g>
</svg>