<?xml version="1.0" encoding="UTF-8"?>
<svg width="21px" height="20px" viewBox="0 0 21 20" version="1.1" xmlns="http://www.w3.org/2000/svg" xmlns:xlink="http://www.w3.org/1999/xlink">
    <!-- Generator: Sketch 58 (84663) - https://sketch.com -->
    <title>Wind-2</title>
    <desc>Created with Sketch.</desc>
    <g id="Page-1" stroke="none" stroke-width="1" fill="none" fill-rule="evenodd">
        <g id="Weather-Glyph" transform="translate(-682.000000, -406.000000)" fill="#404852" fill-rule="nonzero">
            <g id="Wind-2" transform="translate(676.000000, 400.000000)">
                <path d="M6.44127706,22.3360275 L8.10421958,21.2157293 C10.8777659,19.347235 14.8712205,19.6633144 17.2008218,21.9520454 C18.6717885,23.3972057 21.3283618,23.5692914 23.0625349,22.3175574 L23.1779935,22.2309342 L23.1779935,22.2309342 L23.2891407,22.1408694 L25.3558643,20.4004706 C25.778313,20.0447243 26.4091648,20.0987973 26.7649112,20.5212461 C27.0932924,20.9111988 27.0724785,21.4787257 26.7350658,21.8435343 L26.6441357,21.930293 L24.5774122,23.6706918 C24.4665667,23.7640354 24.3516996,23.8536106 24.2330708,23.9392373 C21.7878757,25.7041902 18.1851001,25.5257648 15.9892163,23.5570689 L15.6305544,23.2218292 C14.0179731,21.8006728 11.3418425,21.5893498 9.4241476,22.7453425 L9.22166546,22.8744381 L7.55872294,23.9947362 C7.10068317,24.3033104 6.47921979,24.1821445 6.17064563,23.7241048 C5.88411248,23.2987821 5.96812043,22.7325483 6.34831575,22.406766 L6.44127706,22.3360275 L8.10421958,21.2157293 L6.44127706,22.3360275 Z M17.2008218,14.9520454 C18.6717885,16.3972057 21.3283618,16.5692914 23.0625349,15.3175574 L23.1779935,15.2309342 L23.2891407,15.1408694 L25.3558643,13.4004706 C25.778313,13.0447243 26.4091648,13.0987973 26.7649112,13.5212461 C27.0932924,13.9111988 27.0724785,14.4787257 26.7350658,14.8435343 L26.6441357,14.930293 L24.5774122,16.6706918 C24.4665667,16.7640354 24.3516996,16.8536106 24.2330708,16.9392373 C21.7878757,18.7041902 18.1851001,18.5257648 15.9892163,16.5570689 L15.6305544,16.2218292 C14.0179731,14.8006728 11.3418425,14.5893498 9.4241476,15.7453425 L9.22166546,15.8744381 L7.55872294,16.9947362 C7.10068317,17.3033104 6.47921979,17.1821445 6.17064563,16.7241048 C5.88411248,16.2987821 5.96812043,15.7325483 6.34831575,15.406766 L6.44127706,15.3360275 L8.10421958,14.2157293 C10.8777659,12.347235 14.8712205,12.6633144 17.2008218,14.9520454 Z M17.2008218,7.95204539 C18.6717885,9.39720571 21.3283618,9.56929143 23.0625349,8.31755743 L23.1779935,8.23093417 L23.2891407,8.14086942 L25.3558643,6.40047062 C25.778313,6.04472427 26.4091648,6.09879729 26.7649112,6.52124608 C27.0932924,6.9111988 27.0724785,7.4787257 26.7350658,7.84353426 L26.6441357,7.93029302 L24.5774122,9.67069182 C24.4665667,9.76403538 24.3516996,9.85361057 24.2330708,9.93923735 C21.7878757,11.7041902 18.1851001,11.5257648 15.9892163,9.55706885 L15.6305544,9.22182921 C14.0179731,7.80067281 11.3418425,7.58934976 9.4241476,8.74534246 L9.22166546,8.87443807 L7.55872294,9.99473619 C7.10068317,10.3033104 6.47921979,10.1821445 6.17064563,9.72410477 C5.88411248,9.29878212 5.96812043,8.7325483 6.34831575,8.40676602 L6.44127706,8.33602745 L8.10421958,7.21572933 C10.8777659,5.34723497 14.8712205,5.66331437 17.2008218,7.95204539 Z" id="Shape"></path>
            </g>
        </g>
    </g>
</svg>