<?xml version="1.0" encoding="UTF-8"?>
<svg width="28px" height="12px" viewBox="0 0 28 12" version="1.1" xmlns="http://www.w3.org/2000/svg" xmlns:xlink="http://www.w3.org/1999/xlink">
    <!-- Generator: Sketch 58 (84663) - https://sketch.com -->
    <title>Windy-2</title>
    <desc>Created with Sketch.</desc>
    <g id="Page-1" stroke="none" stroke-width="1" fill="none" fill-rule="evenodd">
        <g id="Weather-Glyph" transform="translate(-750.000000, -265.000000)" fill="#404852" fill-rule="nonzero">
            <g id="Windy-2" transform="translate(748.000000, 255.000000)">
                <path d="M11.1104315,10.0061163 L16,10.5488815 L16,21.4508815 L11.1104315,21.9938837 C10.5180656,22.0597022 10,21.5960113 10,21 L10,18.7808815 L4,17.2808815 L4,19 C4,19.5128358 3.61395981,19.9355072 3.11662113,19.9932723 L3,20 C2.48716416,20 2.06449284,19.6139598 2.00672773,19.1166211 L2,19 L2,13 C2,12.4477153 2.44771525,12 3,12 C3.51283584,12 3.93550716,12.3860402 3.99327227,12.8833789 L4,13 L4,14.5558815 L10,12.3058815 L10,11 C10,10.4039887 10.5180656,9.94029783 11.1104315,10.0061163 Z M18,10.7718815 L22,11.2158815 L22,20.7838815 L18,21.2278815 L18,10.7718815 Z M24,11.4378815 L29.1104315,12.0061163 C29.6168642,12.0623866 30,12.4904508 30,13 L30,19 C30,19.5095492 29.6168642,19.9376134 29.1104315,19.9938837 L24,20.5618815 L24,11.4378815 Z M10,14.4430005 L6.358043,15.8087343 L10,16.7192236 L10,14.4430005 Z" id="Shape"></path>
            </g>
        </g>
    </g>
</svg>