<?xml version="1.0" encoding="UTF-8"?>
<svg width="28px" height="24px" viewBox="0 0 28 24" version="1.1" xmlns="http://www.w3.org/2000/svg" xmlns:xlink="http://www.w3.org/1999/xlink">
    <!-- Generator: Sketch 58 (84663) - https://sketch.com -->
    <title>Windy-1</title>
    <desc>Created with Sketch.</desc>
    <g id="Page-1" stroke="none" stroke-width="1" fill="none" fill-rule="evenodd">
        <g id="Weather-Glyph" transform="translate(-678.000000, -259.000000)" fill="#404852" fill-rule="nonzero">
            <g id="Windy-1" transform="translate(676.000000, 255.000000)">
                <path d="M11.0000314,3.99988294 C11.0472449,4.00022217 11.087249,4.00295823 11.1269049,4.00805499 L16,4.54888294 L16,15.4508829 L11.1104315,15.9938837 L11.062612,15.9981146 L11.0001679,16.0001332 L11.018,15.9988829 L10.9528719,15.9990886 C10.9315622,15.998094 10.909655,15.9963709 10.8877772,15.9939163 C10.8650174,15.9914437 10.8428902,15.9881999 10.8209943,15.9842356 C10.8080821,15.981785 10.7944341,15.9790214 10.7808212,15.975964 C10.7555329,15.9704155 10.7311206,15.9639295 10.7070752,15.9565546 C10.6956526,15.9528919 10.6839851,15.9490771 10.6723623,15.9450358 C10.6461253,15.9360931 10.6202043,15.9258417 10.5948206,15.9145585 L10.555,15.8948829 L10.477,15.8518829 L10.4595122,15.8414667 L4,11.8038829 L4,27 C4,27.5128358 3.61395981,27.9355072 3.11662113,27.9932723 L3,28 C2.44771525,28 2,27.5522847 2,27 L2,7 C2,6.44771525 2.44771525,6 3,6 C3.55228475,6 4,6.44771525 4,7 L4,8.19588294 L10.4481831,4.16593649 C10.4864331,4.14057245 10.5264883,4.11778248 10.5680871,4.09780067 L10.5921058,4.0868148 L10.6160836,4.07646461 C10.6319639,4.06965904 10.6482392,4.06336409 10.6647049,4.05749136 C10.6940995,4.04715591 10.7242282,4.03799531 10.7545612,4.0303102 L10.7704251,4.02628996 C10.7966019,4.02026233 10.8226288,4.01522941 10.8487287,4.01124934 C10.8607906,4.0093088 10.8735438,4.00761568 10.8863645,4.00616811 C10.9089859,4.00368189 10.9312277,4.00192127 10.9534624,4.00090603 L10.9764656,3.99988294 L11.0000314,3.99988294 Z M18,4.77188294 L22,5.21588294 L22,14.7838829 L18,15.2278829 L18,4.77188294 Z M24,5.43788294 L29.1104315,6.00611627 C29.6168642,6.06238656 30,6.49045078 30,7 L30,13 C30,13.5095492 29.6168642,13.9376134 29.1104315,13.9938837 L24,14.5618829 L24,5.43788294 Z M10,6.80388294 L4.88679623,10 L10,13.1958829 L10,6.80388294 Z" id="Shape"></path>
            </g>
        </g>
    </g>
</svg>