<?xml version="1.0" encoding="UTF-8"?>
<svg width="26px" height="12px" viewBox="0 0 26 12" version="1.1" xmlns="http://www.w3.org/2000/svg" xmlns:xlink="http://www.w3.org/1999/xlink">
    <!-- Generator: Sketch 58 (84663) - https://sketch.com -->
    <title>Windy-3</title>
    <desc>Created with Sketch.</desc>
    <g id="Page-1" stroke="none" stroke-width="1" fill="none" fill-rule="evenodd">
        <g id="Weather-Glyph" transform="translate(-103.000000, -338.000000)" fill="#404852" fill-rule="nonzero">
            <g id="Windy-3" transform="translate(100.000000, 328.000000)">
                <path d="M9.98372423,10.0000317 L10.1246792,10.0078029 L13.4565706,10.4317853 C13.8717639,10.4853738 14.2753514,10.5377886 14.6673545,10.5890336 C16.1548967,11.7324273 17,13.4701154 17,16 C17,18.0904334 16.5228402,19.1700163 15.1756988,20.518537 L14.9865684,20.7042133 L13.9523761,21.6641497 L10.0874006,21.9961732 L10.0874006,21.9961732 C9.95801398,22.0075252 9.83222446,21.9937044 9.71486834,21.9587671 C9.48099213,21.9856527 9.24217157,22.0000605 9,22.0000605 C5.6862915,22.0000605 3,19.3137085 3,16 C3,12.6862915 5.6862915,9.9999114 9,9.9999114 C9.2418261,9.9999114 9.48031076,10.0143064 9.71465378,10.0421191 C9.80042823,10.0159565 9.8908267,10.0014786 9.98372423,10.0000317 Z M21.6625339,11.5650876 L21.7046916,11.6179658 C22.5410748,12.7015862 23,14.1356958 23,16 C23,18.0904334 22.5228402,19.1700163 21.1756988,20.518537 L20.9865684,20.7042133 L20.4982072,21.1578824 L18.0353705,21.3355822 C17.7286882,21.3589716 17.4110146,21.3835755 17.08237,21.409393 C18.4296786,19.895063 19,18.4026157 19,16 C19,13.989498 18.5398278,12.3270882 17.7052845,10.9947254 L20.275264,11.3564194 C20.6546324,11.41183 21.0095606,11.4648067 21.3401094,11.5153523 L21.6625339,11.5650876 L21.6625339,11.5650876 Z M24.2482526,12.0296756 L25.8117168,12.4167781 L25.8117168,12.4167781 C27.6854678,12.8850949 29,14.5686111 29,16.5 C29,18.5479065 27.587566,20.3252341 25.592584,20.787698 C25.0444347,20.9147764 24.575151,20.9862718 24.1746829,20.9985911 L23.7312834,20.9985695 C23.6387453,20.9992046 23.5366256,21.0008857 23.4249403,21.0036123 C24.5267914,19.6218552 25,18.1885213 25,16 C25,14.480262 24.7370648,13.1594185 24.2482526,12.0296756 Z M9,12 C6.790861,12 5,13.790861 5,16 C5,18.209139 6.790861,20 9,20 C11.209139,20 13,18.209139 13,16 C13,13.790861 11.209139,12 9,12 Z" id="Shape"></path>
            </g>
        </g>
    </g>
</svg>