<?xml version="1.0" encoding="UTF-8"?>
<svg width="26px" height="23px" viewBox="0 0 26 23" version="1.1" xmlns="http://www.w3.org/2000/svg" xmlns:xlink="http://www.w3.org/1999/xlink">
    <!-- Generator: Sketch 58 (84663) - https://sketch.com -->
    <title>Wind-1</title>
    <desc>Created with Sketch.</desc>
    <g id="Page-1" stroke="none" stroke-width="1" fill="none" fill-rule="evenodd">
        <g id="Weather-Glyph" transform="translate(-463.000000, -332.000000)">
            <g id="Wind-1" transform="translate(460.000000, 327.000000)">
                <rect id="Rectangle" x="0" y="0" width="32" height="32"></rect>
                <g id="Group-5" transform="translate(2.000000, 5.000000)">
                    <g id="Group-4" transform="translate(0.218649, 0.218649)" fill="#404852" fill-rule="nonzero">
                        <path d="M15.7034173,13.8088507 C18.0497891,13.8088507 19.9518993,15.7109609 19.9518993,18.0573327 C19.9518993,20.4037046 18.0497891,22.3058148 15.7034173,22.3058148 C13.3570454,22.3058148 11.4549352,20.4037046 11.4549352,18.0573327 C11.4549352,17.505048 11.9026504,17.0573327 12.4549352,17.0573327 C12.967771,17.0573327 13.3904424,17.4433729 13.4482075,17.9407116 L13.4549352,18.0573327 C13.4549352,19.2991351 14.4616149,20.3058148 15.7034173,20.3058148 C16.9452196,20.3058148 17.9518993,19.2991351 17.9518993,18.0573327 C17.9518993,16.8155304 16.9452196,15.8088507 15.7034173,15.8088507 L1.78135127,15.8088507 C1.22906652,15.8088507 0.781351267,15.3611354 0.781351267,14.8088507 C0.781351267,14.2565659 1.22906652,13.8088507 1.78135127,13.8088507 L15.7034173,13.8088507 Z M21.279731,1.40148307 C24.1876596,1.40148307 26.5450016,3.758825 26.5450016,6.66675364 C26.5450016,9.50198406 24.3040534,11.813813 21.4967651,11.9276324 L21.279731,11.9320242 L3,11.9320242 C2.44771525,11.9320242 2,11.484309 2,10.9320242 C2,10.4191884 2.38604019,9.99651704 2.88337887,9.93875193 L3,9.9320242 L21.279731,9.9320242 L21.4650214,9.92685524 C23.1821733,9.83079672 24.5450016,8.40792798 24.5450016,6.66675364 C24.5450016,4.8633945 23.0830901,3.40148307 21.279731,3.40148307 C19.4763719,3.40148307 18.0144604,4.8633945 18.0144604,6.66675364 C18.0144604,7.21903839 17.5667452,7.66675364 17.0144604,7.66675364 C16.4621757,7.66675364 16.0144604,7.21903839 16.0144604,6.66675364 C16.0144604,3.758825 18.3718024,1.40148307 21.279731,1.40148307 Z M1.78135127,7.27984984 C1.22906652,7.27984984 0.781351267,6.83213459 0.781351267,6.27984984 C0.781351267,5.767014 1.16739146,5.34434267 1.66473014,5.28657757 L1.78135127,5.27984984 L11.8886212,5.27984984 L12.0194406,5.27363163 C12.7082682,5.20781012 13.2469842,4.62756042 13.2469842,3.92148686 C13.2469842,3.1712837 12.6388243,2.56312388 11.8886212,2.56312388 C11.1825476,2.56312388 10.6022979,3.10183984 10.5364764,3.79066744 L10.5235305,4.03810798 C10.4657654,4.53544667 10.043094,4.92148686 9.5302582,4.92148686 C8.97797345,4.92148686 8.5302582,4.47377161 8.5302582,3.92148686 C8.5302582,2.0667142 10.0338485,0.563123877 11.8886212,0.563123877 C13.7433938,0.563123877 15.2469842,2.0667142 15.2469842,3.92148686 C15.2469842,5.71443376 13.8419625,7.17922028 12.0728852,7.27488055 L11.8886212,7.27984984 L1.78135127,7.27984984 Z" id="Shape"></path>
                    </g>
                    <g id="Group-4-Copy-2" transform="translate(11.000000, 17.830238) scale(1, -1) translate(-11.000000, -17.830238) translate(2.000000, 13.830238)"></g>
                    <g id="Group-4-Copy" transform="translate(2.000000, 1.559784)"></g>
                </g>
            </g>
        </g>
    </g>
</svg>